<svg xmlns="http://www.w3.org/2000/svg" fill="none" viewBox="0 0 100 100"><path fill="#000" stroke="#fff" stroke-width="2" d="M50 89.1a39.2 39.2 0 1 1 0-78.4 39.2 39.2 0 0 1 0 78.4Z"/><path fill="#fff" d="m17.4 40.6-2.3 4.6 3.1-4.2-.2 6 .9-4.6a49 49 0 0 0 14.5 16l1.4 1.4s6.8 3.4 17.3-4.5l.3-.2h.2l2.3 1.6-2.3-.6c-5 5.8-13.3 6.7-17.7 3.8-.2-.1-1.3.3-1.5 1-.1.3 0 .7.2 1 .9 1.6 2.2 1.5 1.6 3.4l-1.8 3c-1.5 2-3.8 3.8-3.5 4.8 10.4 12.8 33.8 11 42.8-.4-.2-1.6-2.8-2.4-4.6-6.5l1.3.4s-2.2-3.6-2.3-4l1.4.2-1.9-2.5 1.9-.3s-2.4-2.7-2.4-3l2.4.5-2.6-3.2H67l-1.5-2.1-11.9-4.7a91.6 91.6 0 0 1-11.6-9l-6.2-3c-6-.4-11.4-.3-14.8.4l2.1-3.7-3.1 3.7h-.4l.2-4.9-1 4.5-1.5 5Z"/><path fill="#fff" d="M18.8 35.6c-1.5-.7-3.3.3-3.7 1.8-.3 1.3.6 3 2.3 3.2 1.6-1 3-3.5 1.4-5ZM42 32.1c-.4-1.3-.3-3 .4-4.6 1-2.2 2.8-3.6 4.5-3.6.4 0 .7 0 1 .2 1-1 2.1-1.7 3.4-2.2 7-2.8 17.3 2.2 20 9.1 1.3 3.4.9 7-.2 10.3-.9 2.8-4.1 6.7-3 9.7-.4-.1-10.4-3.5-13.3-5a91.9 91.9 0 0 1-11.5-9h-.1L33 32l-.4-.2c1.4.1 7 .8 9.5.2Z"/><path fill="#fff" d="M48.5 30.1c1-2.2.6-4.4-.7-5-1.3-.5-3.1.8-4 3-1 2.2-.7 4.4.6 5 1.3.5 3.1-.8 4-3Z"/><path fill="#000" fill-rule="evenodd" d="M48.1 24.5c-1.7-.7-4 .7-5 3.3-1.2 2.5-.7 5 1 5.9 1.7.7 4-.7 5.1-3.3 1.1-2.5.6-5-1-5.9Zm.2 5.6c-1 2-2.6 3.2-3.8 2.7-1.2-.6-1.5-2.6-.6-4.7 1-2 2.6-3.2 3.8-2.7 1.2.6 1.5 2.6.6 4.7Z" clip-rule="evenodd"/></svg>