<svg xmlns="http://www.w3.org/2000/svg" fill="none" viewBox="0 0 100 100"><g clip-path="url(#a)"><path fill="#fff" d="M18.1 69v20.8h14.7V69.9a7.4 7.4 0 0 1 7.4-7.3h15.1a27 27 0 0 0 18.8-7.7A26.2 26.2 0 0 0 55.3 10H18.1v26H33V23.7h21.4c3.4 0 6.6 1.3 9 3.7a12.4 12.4 0 0 1-9 21.2H38.7a20.8 20.8 0 0 0-19 12.6 21 21 0 0 0-1.6 7.8Z"/><path fill="url(#b)" d="M40.2 62.6a22.3 22.3 0 0 0-20.4 13.5 21.7 21.7 0 0 0-1.7 8.4v5.3h14.7V69.9a7.4 7.4 0 0 1 7.4-7.3Z"/></g><defs><linearGradient id="b" x1="29.2" x2="29.2" y1="85.9" y2="42.4" gradientUnits="userSpaceOnUse"><stop stop-color="#fff"/><stop offset="1" stop-color="#1C0554"/></linearGradient><clipPath id="a"><path fill="#fff" d="M18 10h64v80H18z"/></clipPath></defs></svg>