<svg xmlns="http://www.w3.org/2000/svg" viewBox="0 0 100 100" fill="none"><g clip-path="url(#a)"><path fill="currentColor" d="m6.1 26.5 5 7.2h29L47.2 49a59.7 59.7 0 0 1 5 15.4h-29l2.5 9C17.7 65.8 9.2 57.3 0 48L6 26.5Zm51 7.3c2.6 5 4.9 9.9 7 14.9 2 5 3.5 10.2 4.7 15.8H57c0-3.8-2-9.5-5.5-17-3.5-7.6-5.8-12.2-6.7-13.9l12.2.2Zm16.6 30.6c-.8-3.7-1.6-7-2.6-10s-4.2-10-9.6-20.7l8.1.1a115.2 115.2 0 0 1 9 18.8c1.9 4.6 3 8.5 3.1 11.8h-8Zm13.5 0a58.8 58.8 0 0 0-5.7-17.1l-6.7-13.1h5.5c1.1 1.3 2.3 3.2 3.4 5.5a95.1 95.1 0 0 1 4 7.9c.7 1.5 2.5 7 5.2 16.7h-5.7Zm9.6-.3-.9-4.9-1-3.4-2-5.8c-.8-2.5-3.3-7.7-7.6-15.6l3.5-.1a55 55 0 0 1 6.1 11.5l3.1 8.9c1.2 3.1 1.9 6.2 2 9.4h-3.2Z"/></g><defs><clipPath id="a"><path fill="#fff" d="M0 0h100v100H0z"/></clipPath></defs></svg>
