<svg xmlns="http://www.w3.org/2000/svg" width="448" height="173" fill="none"><path fill="#fff" d="M191.709 15.774c-3.615-.343-6.049-.53-7.285-.563-1.226-.031-2.408.87-3.545 2.714-1.124 1.83-1.257 4.502-.403 8.01.87 3.502 1.76 7.002 2.672 10.494a117.508 117.508 0 0 1 2.214 10.145 246.192 246.192 0 0 1 1.548 9.954c.452 3.356.818 7.473 1.098 12.357l10.764.364-.253-7.468-.89-7.072 10.281.706.825 4.618 1.03 9.587 9.998.337c-.436-5.728-.919-10.359-1.444-13.893a182.994 182.994 0 0 0-2.04-11.193 128.517 128.517 0 0 0-2.847-11.189c-1.064-3.534-2.1-6.494-3.11-8.877a104.087 104.087 0 0 0-3.198-6.996c-6.674-1.034-11.829-1.715-15.415-2.035ZM332.217 28.34c-2.628-.252-4.399-.388-5.298-.401-.889-.013-1.746.771-2.57 2.354-.815 1.57-.913 3.847-.293 6.825a847.47 847.47 0 0 0 1.939 8.915c.662 2.946 1.197 5.82 1.608 8.626.42 2.788.795 5.614 1.124 8.475.329 2.858.593 6.366.798 10.529l7.837.264-.184-6.376-.649-6.033 7.507.54.604 3.945.753 8.195 7.328.248c-.321-4.905-.673-8.87-1.06-11.895a179.127 179.127 0 0 0-1.498-9.572 124.873 124.873 0 0 0-2.086-9.556c-.78-3.015-1.539-5.537-2.278-7.567a95.445 95.445 0 0 0-2.338-5.95c-4.873-.81-8.633-1.333-11.244-1.566Zm51.886 4.707c-3.208-.286-5.391-.45-6.533-.49-1.135-.038-1.937.23-2.401.8-.466.572-.62 1.367-.468 2.385.161 1.003.691 3.447 1.587 7.327.895 3.87 1.548 7.003 1.958 9.406.41 2.4.729 4.558.959 6.476.23 1.9.568 5.7 1.017 11.396-.01.233.095.776.313 1.626.229.834.642 1.62 1.237 2.358.605.72 1.561 1.103 2.862 1.147 1.307.044 3.831.154 7.546.325 3.679.185 5.913.26 6.73.227.814-.018 1.481-.347 1.999-.981a5.728 5.728 0 0 0 1.089-2.209c.216-.84.235-2.21.056-4.11a177.822 177.822 0 0 0-.776-6.676c-.33-2.566-.826-5.65-1.488-9.26-.662-3.616-1.407-7.1-2.234-10.453-.828-3.375-1.706-5.594-2.635-6.652-.93-1.076-2.168-1.715-3.712-1.914-1.551-.2-3.915-.443-7.106-.728Zm-169.3-15.039c.103.312.545 1.686 1.324 4.12.791 2.43 1.748 5.52 2.872 9.269a145.944 145.944 0 0 1 2.99 11.787c.882 4.113 1.56 7.786 2.036 11.02.476 3.23.995 8.634 1.557 16.205l.322-.214 29.598.998.181-.185c-.054-3.734-.269-7.259-.647-10.574l-19.113-1.067c-.225-2.548-.668-5.529-1.33-8.938a246.006 246.006 0 0 0-2.162-10.074 151.54 151.54 0 0 0-2.749-10.055c-1.055-3.423-2.379-7.12-3.972-11.094l-10.907-1.198ZM72.968 5.48a126.5 126.5 0 0 1 2.98 7.448c.95 2.558 2.014 5.623 3.193 9.186a170.52 170.52 0 0 1 3.264 11.078 278.32 278.32 0 0 1 2.582 10.72c.744 3.297 1.373 6.55 1.887 9.764.532 3.21.866 7.186 1 11.926l13.663.46c-.37-5.496-.85-10.352-1.444-14.57-.575-4.22-1.45-8.823-2.623-13.816-1.176-5.025-2.466-9.578-3.873-13.657-1.392-4.09-3.509-9.752-6.353-17.008l-14.276-1.53Zm34.622 3.117a106.262 106.262 0 0 0-4.084-.298c-2.124-.105-3.745.572-4.86 2.03-1.099 1.44-1.54 2.702-1.315 3.787a52.15 52.15 0 0 0 .671 2.838c.242.83.653 2.278 1.23 4.346.576 2.066 1.279 4.713 2.113 7.94.85 3.222 1.773 7.167 2.768 11.828.994 4.652 1.747 8.647 2.261 11.993.531 3.322 1.054 5.71 1.566 7.167.511 1.456 1.634 2.868 3.362 4.236 1.74 1.344 3.123 2.032 4.151 2.067l1.833.061 25.421.856-.796-8.544-.769-4.263-16.055-.743c-1.665-.078-2.952-.578-3.86-1.496-.909-.94-1.479-1.625-1.712-2.054-.214-.45-.465-1.17-.751-2.167-.269-1.017-.617-2.593-1.047-4.73a268.354 268.354 0 0 0-1.753-7.923 544.248 544.248 0 0 1-1.759-7.764c-.415-2.024-.585-3.423-.513-4.195.091-.791.325-1.33.704-1.616.379-.307 2.162-.337 5.334-.092 3.17.245 7.74.68 13.671 1.303l-.314-1.445-.523-1.989-2.779-8.5c-6.505-.888-11.98-1.574-16.392-2.051-2.22-.24-4.155-.435-5.803-.582Zm-58.394-5.07L44.74 18.152 30.016 2.06 12.416.499c-.13-.173.5 1.43 1.892 4.797 1.41 3.338 2.945 7.514 4.606 12.527 1.656 4.975 3.063 9.76 4.218 14.358a182.218 182.218 0 0 1 2.911 13.263c.787 4.273 1.402 10.218 1.847 17.832l.236.281 14.203.479c.206-.172.142-2.477-.188-6.912-.331-4.46-.797-8.702-1.397-12.732-.601-4.057-1.991-10.026-4.178-17.92L49.804 39.87l6.987-13.134c2.51 7.51 4.27 13.334 5.288 17.492 1.015 4.15 1.977 11.01 2.89 20.571l13.388.451c-.194-5.284-.871-11.58-2.034-18.899-1.146-7.355-2.04-12.172-2.684-14.438-.644-2.29-1.669-5.886-3.08-10.797-1.413-4.924-3.426-10.252-6.038-15.992L49.196 3.528Zm-21.07 60.03h-.016l.224.247-.208-.247Zm245.652-40.046c-3.606-.321-6.069-.405-7.366-.252-1.29.155-2.283.676-2.984 1.567-.688.893-.894 1.973-.616 3.237.291 1.246.728 3.076 1.309 5.49.594 2.414 1.26 5.297 1.997 8.643.747 3.324 1.697 5.625 2.848 6.908 1.161 1.281 2.784 2.053 4.868 2.315l6.631.772c2.334.273 4.101.646 5.309 1.117 1.204.451 2.05 2.192 2.537 5.22.5 3.026-.082 4.735-1.747 5.134-4.474-.195-6.894-.47-7.226-.82-.331-.35-.624-.839-.88-1.468-.243-.63-.499-2.091-.768-4.384l-8.724-.444.217 4.56c.782 7.649 4.742 11.401 11.797 11.264l10.763.359c2.901-1.012 4.523-2.34 4.878-3.987.367-1.662.306-4.56-.183-8.695-.479-4.14-1.166-7.46-2.063-9.954-.9-2.5-2.551-4.082-4.961-4.743-2.424-.665-4.777-1.074-7.063-1.225-2.285-.15-3.828-.454-4.621-.913-.794-.46-1.415-1.042-1.865-1.745-.438-.704-.89-1.94-1.354-3.712-.451-1.789-.723-3.132-.813-4.026-.077-.894.556-1.35 1.895-1.369 1.347-.017 2.8.196 4.357.636 1.551.44 2.734 2.017 3.557 4.73l8.887.47a96.908 96.908 0 0 0-1.731-6.654c-.609-2.035-1.635-3.673-3.082-4.915-1.454-1.263-3.746-2.036-6.887-2.315-1.044-.216-3.341-.483-6.916-.801Zm134.584 11.974c-2.578-.23-4.338-.271-5.265-.127-.92.146-1.63.597-2.129 1.358-.491.762-.637 1.676-.438 2.74.207 1.05.517 2.59.932 4.624.424 2.032.899 4.458 1.425 7.279.534 2.802 1.213 4.742 2.034 5.817.83 1.074 1.991 1.715 3.482 1.92l4.752.606c1.675.214 2.944.517 3.812.907.866.375 1.474 1.843 1.825 4.408.359 2.563-.059 4.02-1.256 4.367-3.215-.14-4.952-.36-5.189-.654-.238-.294-.448-.707-.632-1.238-.174-.532-.357-1.768-.55-3.707l-6.244-.318.153 3.854c.56 6.462 3.394 9.615 8.451 9.468l7.738.258c2.091-.872 3.261-2.004 3.517-3.405.265-1.413.219-3.874-.134-7.385-.344-3.514-.84-6.328-1.488-8.44-.648-2.116-1.837-3.444-3.572-3.985-1.742-.544-3.437-.87-5.078-.979-1.641-.108-2.746-.352-3.314-.733a4.11 4.11 0 0 1-1.339-1.462c-.313-.59-.635-1.633-.968-3.128-.323-1.51-.516-2.643-.581-3.399-.055-.755.398-1.148 1.357-1.177.966-.029 2.007.137 3.123.494 1.112.356 1.962 1.68 2.553 3.972l6.393.315a92.394 92.394 0 0 0-1.246-5.63c-.439-1.72-1.178-3.1-2.221-4.137-1.045-1.055-2.69-1.684-4.944-1.884-.749-.171-2.398-.37-4.959-.599Zm-114.043-9.99.13.404c0-.122.282.793.848 2.747a600.31 600.31 0 0 1 2.535 8.968c1.123 4.015 2.328 9.264 3.614 15.74a381.523 381.523 0 0 1 3.345 19.502l11.833.399c1.307-2.4 2.538-5.872 3.697-10.412 1.168-4.527 1.837-8.98 2.009-13.362.173-4.38.185-8.2.036-11.463a188.365 188.365 0 0 0-.709-10.095l-9.116-.81c.4 4.41.677 8.17.829 11.282.165 3.096.212 6.194.142 9.29-.059 3.097-.755 7.81-2.089 14.157-1.279-9.23-2.578-16.453-3.901-21.66-1.327-5.224-2.64-9.837-3.939-13.839l-9.264-.847Zm54.23 4.84c.679 2.12 1.648 5.476 2.904 10.059l7.126.545c1.344 4.247 2.434 8.958 3.271 14.136.834 5.167 1.729 11.822 2.684 19.96l7.687.258c-.651-6.974-1.192-11.807-1.621-14.495a180.227 180.227 0 0 0-1.519-8.263c-.575-2.837-1.423-6.547-2.546-11.132l8.27.634-.424-1.705c-.273-1.153-.967-3.78-2.084-7.89l-22.52-1.998-1.228-.11ZM135.536 11.49a766.424 766.424 0 0 0 3.315 10.59c.929 2.857 1.866 6.108 2.808 9.751a354.165 354.165 0 0 1 2.662 10.728c.833 3.51 1.477 6.905 1.935 10.182.458 3.255.923 8.203 1.396 14.843l.203.007 12.344.416c-.346-6.552-.659-11.17-.94-13.853a128.51 128.51 0 0 0-1.165-8.62l10.442.799c.729 3.36 1.281 6.45 1.652 9.267.388 2.796.888 7.14 1.501 13.033l11.6.388c-.063-4.175-.274-7.788-.636-10.841-.363-3.075-.9-6.339-1.61-9.791a225.043 225.043 0 0 0-2.448-10.791c-.937-3.726-1.891-7.114-2.863-10.165-.976-3.078-2.563-7.331-4.768-12.772l-12.499-1.137c1.058 2.241 2.205 5.086 3.439 8.533 1.23 3.418 2.548 7.684 3.952 12.791l-10.502-.952c-1.084-4.048-2.026-7.328-2.83-9.834-.787-2.529-2.165-6.326-4.137-11.402l.584.022-4.625-.41-8.81-.782ZM386.55 40.71c1.105.088 1.929.178 2.474.267.545.074 1.007.44 1.385 1.101.378.66.794 2.067 1.249 4.22.464 2.137.903 4.37 1.317 6.697.423 2.31.761 4.282 1.01 5.919.25 1.636.456 3.07.619 4.303.164 1.216.226 2.099.188 2.648a5.01 5.01 0 0 1-.274 1.432c-.154.406-.374.625-.663.658-.278.019-1.064-.016-2.358-.104a88.295 88.295 0 0 0-2.619-.183c-.448-.02-.794-.259-1.038-.717a6.187 6.187 0 0 1-.528-1.486c-.117-.53-.184-.865-.205-1.005h.002c-.44-3.607-.75-6.014-.927-7.215-.166-1.2-.381-2.55-.646-4.052a165.665 165.665 0 0 0-1.137-5.91c-.493-2.44-.793-3.974-.901-4.604-.101-.628-.092-1.133.027-1.512.128-.378.385-.565.77-.566.394-.015 1.146.021 2.255.11Zm-189.31-14.75c1.006.108 2.164.268 3.47.482 1.422 4.203 2.404 7.156 2.946 8.863.557 1.687 1.255 4.74 2.096 9.157l-10.281-.648c-1.921-7.17-3.021-11.65-3.298-13.416-.263-1.786-.224-3.103.115-3.95.266-.649 1.92-.811 4.952-.488Zm139.005 11.015a39.55 39.55 0 0 1 2.529.377 563.466 563.466 0 0 1 2.153 7.545c.407 1.437.917 4.042 1.532 7.81l-7.503-.48c-1.399-6.102-2.199-9.912-2.401-11.417-.191-1.52-.166-2.645.081-3.371.194-.556 1.401-.71 3.609-.464ZM268.548 79.36c0 .278-.05 1.501-.152 3.67a339 339 0 0 1-.517 8.302c-.228 3.369-.635 6.931-1.221 10.688-.588 3.761-1.217 7.134-1.882 10.122-.654 2.992-2.004 8.029-4.056 15.132l.368-.22 26.681-.775.221-.185c1.177-3.526 2.139-6.835 2.888-9.93l-17.025.114c.653-2.373 1.241-5.132 1.766-8.273.538-3.154.998-6.227 1.386-9.219.385-3.007.661-6.038.822-9.094.174-3.072.204-6.368.094-9.892l-9.373-.44Zm41.329 1.031c-3.756-.094-6.326-.124-7.687-.091-1.354.033-2.416.365-3.186 1-.758.636-1.228 1.492-1.406 2.562-.179 1.054-.435 3.619-.768 7.697-.333 4.081-.689 7.401-1.071 9.958-.37 2.559-.772 4.868-1.203 6.926-.419 2.043-1.407 6.144-2.971 12.323-.096.256-.163.841-.199 1.755a4.41 4.41 0 0 0 .632 2.496c.469.747 1.497 1.095 3.078 1.049l9.186-.267 8.149-.237c.962-.028 1.877-.406 2.743-1.138a9.95 9.95 0 0 0 2.13-2.496c.556-.932 1.066-2.425 1.529-4.481.463-2.054.948-4.45 1.455-7.186.506-2.749 1.001-6.042 1.484-9.877.482-3.83.811-7.503.99-11.02.191-3.532-.084-5.827-.824-6.886-.74-1.078-2-1.673-3.784-1.782-1.792-.11-4.543-.212-8.277-.305Zm70.801 1.788c-.105 2.68-.341 5.681-.71 9.01a148.812 148.812 0 0 1-1.37 9.712 164.19 164.19 0 0 1-1.958 9.571c-.764 3.24-1.971 7.755-3.626 13.56l.119-.004 7.765-.228 2.384-8.9c.241-.91.533-2.252.879-4.021 1.377 2.271 2.313 4.182 2.808 5.735.504 1.537.903 3.915 1.197 7.133l7.466-.22c-.502-6.288-1.431-11.665-2.787-16.134 2.317-1.505 3.744-2.891 4.292-4.169.555-1.275.924-2.319 1.109-3.133.185-.829.421-2.381.707-4.657.295-2.275.51-4.349.648-6.223.137-1.874-.123-3.387-.786-4.54-.666-1.169-3.447-1.918-8.394-2.249l-9.743-.243ZM70.656 74.696c-2.224-.055-3.737-.075-4.538-.064-.795.01-1.42.162-1.871.45-.444.29-.716.678-.82 1.167-.105.483-.255 1.657-.45 3.522-.194 1.867-.404 3.383-.626 4.55a41.449 41.449 0 0 1-.7 3.156c-.244.93-.819 2.79-1.727 5.59-.056.116-.091.384-.112.8-.022.409.102.792.367 1.148.273.349.868.523 1.788.528l5.38.029 4.828.026a3.002 3.002 0 0 0 1.638-.48 4.99 4.99 0 0 0 1.276-1.123c.333-.423.638-1.11.916-2.057.278-.948.567-2.056.872-3.321.305-1.273.605-2.798.895-4.577.291-1.779.49-3.489.599-5.125.115-1.644-.05-2.714-.496-3.21-.447-.504-1.205-.782-2.277-.839-1.073-.057-2.72-.115-4.942-.17Zm-23.79-.574a46.889 46.889 0 0 1-.525 4.64 54.597 54.597 0 0 1-1.009 4.987 61.697 61.697 0 0 1-1.445 4.901c-.562 1.655-1.447 3.953-2.66 6.902h.086l5.718.03 1.767-4.552c.179-.466.394-1.151.65-2.06 1.025 1.195 1.72 2.197 2.09 3.01.375.803.674 2.04.893 3.712l5.604.028c-.379-3.28-1.078-6.09-2.097-8.433 1.742-.75 2.82-1.453 3.232-2.11.42-.658.698-1.198.838-1.62.14-.43.319-1.24.535-2.423.223-1.183.386-2.263.49-3.24.105-.977-.093-1.767-.596-2.372-.502-.614-2.602-1.021-6.318-1.221l-7.252-.18Zm74.866 1.85.078.67a4139.26 4139.26 0 0 1-2.054 17.065c-.556 4.667-1.217 8.802-1.984 12.403a261.45 261.45 0 0 0-2.044 10.588c-.595 3.475-2.156 8.467-4.694 14.995 19.808-.721 30.138-1.313 31.552-1.791 1.41-.496 2.592-1.123 3.55-1.881.955-.777 1.801-1.765 2.54-2.967a34.13 34.13 0 0 0 1.87-3.502c.506-1.132.904-2.37 1.198-3.713.309-1.342.952-4.426 1.928-9.247.974-4.812 1.646-8.979 2.018-12.504.388-3.543.536-6.342.439-8.399-.097-2.077-.293-3.822-.585-5.238-.275-1.416-.662-2.455-1.164-3.113-.503-.679-1.177-1.176-2.023-1.49-.848-.336-6.214-.838-16.241-1.52l-14.384-.355Zm-39.788-.894c-.054-.001-.095.428-.122 1.29-.027.86-.15 1.98-.37 3.352a142.2 142.2 0 0 1-.796 4.548 44.357 44.357 0 0 1-1.224 4.948 57.596 57.596 0 0 1-1.519 4.387l-.76 1.942.041.091 4.921.026c.516-1.198.882-2.137 1.096-2.823.221-.685.746-2.492 1.574-5.417l3.15 8.26 3.778.031c.75-1.874 1.232-3.148 1.442-3.828.217-.678.673-2.447 1.367-5.301.7-2.857 1.255-6.576 1.667-11.155l-4.94-.122a55.695 55.695 0 0 1-.316 4.098c-.164 1.474-.563 3.813-1.197 7.022l-3.791-11.25-4-.1Zm118.498 3.005.022.42c.044-.129.067.833.067 2.89 0 2.059-.023 5.22-.067 9.485-.045 4.265-.273 8.249-.688 11.955-.398 3.69-.736 7.179-1.018 10.461-.281 3.266-.97 8.471-2.069 15.631l13.804-.401c2.346-2.745 4.962-6.662 7.84-11.736 2.859-5.043 5.103-9.949 6.744-14.733 1.648-4.767 2.916-8.904 3.806-12.417a230.434 230.434 0 0 0 2.451-10.798l-10.304-.252c-.975 4.702-1.881 8.728-2.719 12.074a143.536 143.536 0 0 1-2.927 10.047c-1.103 3.372-3.487 8.564-7.173 15.609 1.594-10.009 2.484-17.778 2.671-23.328.188-5.547.194-10.42.021-14.623l-10.461-.284ZM97.901 75.65l-.011 1.42-.234 2.987 4.833.098c.07 2.233-.462 5.553-1.6 9.962l-1.624 5.625 4.838.026c.193-.488.496-1.417.914-2.79.424-1.379.777-2.688 1.059-3.926.282-1.238.53-2.5.741-3.789.218-1.296.396-2.964.536-4.998l4.744.095.086-.779c.057-.52.144-1.713.264-3.576l-13.805-.337-.741-.018Zm-69.513-1.623a297.208 297.208 0 0 1-.633 6.334 62.621 62.621 0 0 1-.633 4.367 49.241 49.241 0 0 1-1.048 4.553c-.439 1.603-.756 2.705-.957 3.3-.193.589-.553 1.538-1.083 2.85l5.274.028c.938-2.675 1.479-4.244 1.626-4.71.147-.474.553-1.92 1.215-4.335l9.424.126c.411-1.634.699-3.066.865-4.303l-9.375-.248c.133-.954.245-2.135.34-3.548l9.358.273c.18-1.046.237-2.485.173-4.32l-9.286-.239-5.26-.128Zm137.038 3.46c-.89 6.833-1.62 12.068-2.193 15.697a216.927 216.927 0 0 1-1.919 10.708c-.72 3.51-1.656 7.251-2.813 11.229-1.143 3.966-2.735 8.902-4.777 14.818l-.122.239 31.067-.903a226.754 226.754 0 0 0 3.829-10.765l-19.965.155c.567-1.459 1.614-5.086 3.135-10.868l19.456-.13c1.037-3.951 1.801-7.412 2.295-10.39l-19.269-.282c.389-2.324.78-5.205 1.169-8.64l19.222.454c.492-2.515.827-6.035 1.005-10.563l-18.807-.484-11.313-.274Zm71.241 1.727c-.766 6.338-1.397 11.194-1.889 14.56a215.818 215.818 0 0 1-1.647 9.929c-.62 3.255-1.425 6.723-2.42 10.409-.983 3.676-2.347 8.248-4.102 13.727l-.107.221 26.743-.776a220.935 220.935 0 0 0 3.304-9.995l-17.211.12c.489-1.353 1.389-4.716 2.699-10.081l16.776-.112c.896-3.671 1.558-6.888 1.985-9.655l-16.621-.257c.336-2.157.671-4.831 1.007-8.019l16.583.404c.426-2.338.715-5.61.869-9.82l-16.228-.419-9.741-.236Zm118.246 2.865c-.579 5.517-1.057 9.743-1.43 12.672-.363 2.932-.778 5.811-1.247 8.638a139.509 139.509 0 0 1-1.829 9.05c-.742 3.194-1.775 7.166-3.101 11.923l-.078.192 20.269-.589c.909-2.92 1.749-5.823 2.516-8.712l-13.075.071c.37-1.177 1.051-4.104 2.045-8.774l12.755-.085c.682-3.205 1.186-6.014 1.511-8.43l-12.642-.217c.254-1.879.507-4.21.761-6.987l12.62.328c.325-2.043.547-4.901.665-8.579l-12.355-.322-7.385-.179Zm-27.128-.609c.044-.112-.017.94-.182 3.155-.167 2.2-.375 4.903-.63 8.109-.255 3.192-.689 6.7-1.3 10.531-.6 3.819-1.263 7.312-1.988 10.477-.715 3.154-1.673 7.035-2.873 11.653l.238-.007 7.927-.231 1.388-4.808 1.889-8.138.343-1.406c6.696.018 10.377-.152 11.121-.51.754-.357 1.496-.999 2.226-1.925.728-.94 1.23-1.909 1.504-2.906.284-.997.672-2.641 1.165-4.931.504-2.302.808-4.254.913-5.861.115-1.623.199-3.507.251-5.65.052-2.158-.251-3.874-.912-5.15-.651-1.277-2.778-1.96-6.408-2.047l-14.672-.355Zm84.502 2.989c-3.943 6.119-8.232 12.959-12.884 20.541l3.128 17.51 2.528-5.939 14.236-.19 3.433-12.338c1.231-4.356 2.035-8.422 2.412-12.203l-14.089-.116 1.236-7.265ZM70.627 78.57c.774.016 1.346.041 1.722.073.375.023.628.184.757.484.137.3.14.95.011 1.955-.13.996-.288 2.039-.48 3.126a67.753 67.753 0 0 1-1.014 4.817c-.144.578-.284.998-.42 1.256a2.74 2.74 0 0 1-.514.672c-.199.196-.406.303-.618.324-.206.014-.776.034-1.71.064-.937.022-1.553.004-1.85-.053-.297-.056-.485-.185-.561-.393a1.646 1.646 0 0 1-.062-.693 3.39 3.39 0 0 1 .072-.47c.456-1.699.75-2.825.882-3.383.138-.566.271-1.2.402-1.904.138-.703.29-1.62.456-2.751.165-1.13.275-1.843.33-2.133a1.47 1.47 0 0 1 .34-.703.933.933 0 0 1 .67-.286c.282-.016.813-.018 1.587-.002Zm-17.613-.238c1.139.028 1.883.118 2.237.265.472.196.593.771.36 1.727a38.111 38.111 0 0 1-.477 1.873c-.084.293-.253.625-.507.993-.247.368-.62.614-1.123.738-.502.124-1.526.174-3.073.15.1-.263.29-.942.574-2.034.29-1.092.537-2.33.736-3.718.468-.004.893-.004 1.273.006Zm256.811 10.447c1.302.02 2.267.06 2.898.12.63.042 1.053.385 1.27 1.03.229.645.234 2.051.017 4.222a196.802 196.802 0 0 1-.807 6.767c-.32 2.358-.625 4.381-.912 6.065a230.61 230.61 0 0 1-.791 4.389c-.241 1.258-.477 2.172-.706 2.737a6.28 6.28 0 0 1-.865 1.478c-.336.436-.683.681-1.041.737-.347.039-1.309.114-2.891.226-1.587.096-2.635.09-3.139-.018-.505-.108-.822-.385-.952-.833a4.52 4.52 0 0 1-.105-1.503c.047-.535.088-.879.123-1.03.776-3.716 1.275-6.18 1.499-7.399.233-1.235.461-2.618.683-4.151.235-1.533.492-3.532.773-5.995.28-2.46.465-4.004.559-4.635.104-.63.299-1.144.578-1.54.291-.394.669-.604 1.134-.63.476-.042 1.369-.057 2.675-.038Zm28.08.661c2.18-.027 3.438.11 3.783.413.469.405.701 1.083.689 2.037-.011.954-.087 2.418-.226 4.39-.127 1.972-.356 3.355-.687 4.15-.331.796-.818 1.307-1.461 1.53-.644.225-2.582.338-5.834.342-.032-.353.113-1.774.44-4.263.325-2.502.571-5.285.733-8.348l.065-.167a69.167 69.167 0 0 1 2.498-.084Zm51.038.778c1.521.03 2.517.184 2.989.46.629.367.788 1.472.478 3.318-.3 1.833-.513 3.04-.634 3.621-.113.567-.339 1.208-.678 1.924-.329.717-.828 1.203-1.499 1.457-.671.254-2.041.384-4.118.384.133-.512.392-1.83.773-3.95.391-2.117.719-4.517.985-7.202a36.731 36.731 0 0 1 1.704-.012Zm-255.761-3.713c3.121.045 5.412.148 6.883.309 1.467.16 2.412.628 2.844 1.407.448.78.74 1.826.872 3.136.133 1.31.174 3.142.124 5.5a43.91 43.91 0 0 1-.772 7.23 422.139 422.139 0 0 1-1.446 7.483c-.5 2.549-1.022 4.219-1.572 5.003-.535.764-1.214 1.29-2.035 1.583-.805.293-4.121.492-10 .593a38.246 38.246 0 0 0 1.664-6.361c.375-2.115.798-4.368 1.274-6.76.492-2.39.833-4.528 1.02-6.413.186-1.885.355-3.67.507-5.354.153-1.682.367-4.133.637-7.356Zm294.255 5.364c-.055 2.99-.919 7.463-2.6 13.44-1.689 6.026-2.769 9.709-3.23 11.023l5.809-.288c1.216-3.902 2.3-7.803 3.257-11.701.954-3.887 1.695-8.02 2.222-12.403l-5.458-.071Zm7.746.236a118.672 118.672 0 0 1-1.221 7.778c-.461 2.368-1.939 7.749-4.445 16.184l3.773-.143c1.301-3.916 2.088-6.445 2.363-7.596.287-1.127.876-3.491 1.762-7.083.884-3.583 1.37-6.612 1.461-9.093l-3.693-.047Zm6.174.08c-.309 2.798-.697 5.26-1.161 7.384a82.198 82.198 0 0 1-1.436 5.796c-.507 1.762-1.528 5.171-3.068 10.244l2.542-.051c.505-1.087 1.024-2.525 1.555-4.311.53-1.783.865-2.958 1.007-3.529.141-.548.393-1.414.753-2.599.36-1.161 1.163-5.458 2.404-12.87l-2.596-.065Zm5.783.268-1.429.016c-.19 1.782-.33 3.02-.419 3.716-.076.696-.23 1.566-.459 2.61a314.908 314.908 0 0 0-.88 4.48c-.358 1.943-1.505 5.948-3.448 12.041l1.584.065c1.448-3.848 2.369-6.813 2.764-8.908a382.59 382.59 0 0 1 1.393-6.794c.533-2.41.83-4.817.894-7.226ZM53.398 99.65c-.093 0-.16.721-.207 2.164-.046 1.443-.26 3.316-.642 5.623a235.27 235.27 0 0 1-1.37 7.652 74.139 74.139 0 0 1-2.106 8.355c-.86 2.764-1.734 5.249-2.62 7.449l-1.316 3.304.071.152 8.484-.254c.886-2.036 1.511-3.636 1.879-4.795.379-1.159 1.28-4.206 2.698-9.138l5.389 13.614 6.427-.172c1.273-3.163 2.085-5.312 2.442-6.452.367-1.14 1.141-4.103 2.317-8.879 1.185-4.778 2.124-10.972 2.819-18.587l-8.365-.012a91.818 91.818 0 0 1-.54 6.831c-.281 2.46-.957 6.374-2.035 11.749l-6.471-18.594-6.854-.01Zm29.43.044.052.406c-.502 4.089-.935 7.552-1.296 10.39-.35 2.839-.767 5.359-1.25 7.55a154.667 154.667 0 0 0-1.284 6.431c-.374 2.11-1.353 5.141-2.942 9.099 12.488-.462 19.077-.836 19.982-1.13.904-.307 1.663-.691 2.279-1.158.614-.478 1.158-1.088 1.634-1.828.475-.752.877-1.47 1.204-2.156.327-.698.585-1.461.774-2.288.2-.827.617-2.728 1.247-5.7.63-2.968 1.064-5.54 1.304-7.715.252-2.185.348-3.91.285-5.176-.063-1.278-.19-2.35-.378-3.218-.179-.868-.429-1.503-.754-1.901-.326-.411-.763-.707-1.31-.889-.547-.194-4.001-.427-10.422-.703l-9.125-.014Zm-59.66.201c-.683 4.593-1.241 8.109-1.68 10.547-.428 2.44-.92 4.839-1.47 7.193-.55 2.357-1.268 4.867-2.152 7.536-.873 2.66-2.084 5.967-3.64 9.927l-.095.162 23.903-.716a141.138 141.138 0 0 0 2.981-7.289l-15.46.225c.436-.983 1.24-3.424 2.413-7.32l15.093-.254c.81-2.681 1.41-5.03 1.796-7.05l-14.971.021c.3-1.567.602-3.508.902-5.822l14.944.057c.386-1.709.651-4.098.791-7.168l-14.638-.038-8.718-.01Zm66.916 6.065c1.989-.009 3.45.027 4.39.109.94.081 1.547.358 1.824.831.287.473.472 1.111.557 1.912.085.801.113 1.925.082 3.371a25.871 25.871 0 0 1-.497 4.435c-.287 1.5-.595 3.031-.925 4.595-.32 1.564-.657 2.588-1.01 3.071-.341.47-.774.797-1.298.979-.514.183-2.63.318-6.365.404a22.67 22.67 0 0 0 1.055-3.887c.238-1.291.51-2.667.812-4.13.313-1.462.526-2.77.645-3.922.118-1.152.227-2.24.324-3.269s.234-2.529.406-4.499Zm33.514 31.423-1.254 5.107-67.104 3.18c-1.802 2.956-3.248 5.797-4.335 8.52a523.365 523.365 0 0 1-2.876 6.983c-.796 1.964-1.375 4.822-1.74 8.579l71.016-4.919-1.004 5.666 18.895-18.221-11.598-14.895Zm111.926.953a47.666 47.666 0 0 1-.364 3.914 56.461 56.461 0 0 1-.703 4.228 62.505 62.505 0 0 1-1.002 4.176c-.39 1.412-1.006 3.38-1.847 5.907l.061-.004 3.967-.239c.696-2.207 1.103-3.506 1.228-3.899.124-.399.276-.984.454-1.759.712.954 1.197 1.761 1.454 2.425.261.657.469 1.681.622 3.073l3.901-.235c-.265-2.737-.749-5.063-1.46-6.981 1.214-.713 1.964-1.356 2.252-1.929.293-.572.487-1.036.585-1.398.098-.368.221-1.055.371-2.06.157-1.005.27-1.919.344-2.744.073-.826-.065-1.484-.416-1.968-.351-.491-1.813-.726-4.403-.712l-5.044.205Zm-48.339 1.99c.01.731 0 1.49-.034 2.277a69.74 69.74 0 0 1-.19 2.843 50.363 50.363 0 0 1-.404 3.475 96.426 96.426 0 0 1-.557 3.401c-.187 1.053-.524 2.615-1.011 4.687l-.831 2.331 4.025-.242a86.711 86.711 0 0 0 1.395-4.777c.35-1.373.657-2.862.92-4.463.267-1.607.446-3.049.533-4.331.088-1.281.18-3.019.278-5.213l-4.124.012Zm10.002-.385c-.507.021-.926.045-1.253.072-.655.054-1.248.337-1.779.851-.533.515-.842.945-.93 1.291a4.78 4.78 0 0 0-.14.903c-.009.26-.055.717-.137 1.371-.082.648-.195 1.483-.337 2.505a75.833 75.833 0 0 1-.621 3.785 83.808 83.808 0 0 1-.801 3.87c-.259 1.079-.398 1.854-.42 2.323-.023.468.017.857.115 1.167.094.304.28.503.558.596.284.086.587.117.908.098l.572-.034 3.377-.204c2.186-.131 3.625-.326 4.328-.585.702-.267 1.177-.968 1.422-2.109.247-1.148.475-2.097.688-2.848.214-.758.484-2.414.81-4.966l-1.08.012-1.525.037-1.431.07-1.058.084-.672 3.538c.695-.03 1.093.004 1.196.101.102.09.131.257.083.497-.049.241-.131.623-.244 1.146-.112.524-.402.79-.871.796-.469.006-.863.006-1.181.003-.319-.01-.552-.083-.699-.225a1.02 1.02 0 0 1-.268-.418 4.301 4.301 0 0 1-.072-.415c-.016-.142-.005-.375.039-.699.042-.323.134-.83.27-1.52.134-.697.281-1.557.437-2.576.161-1.018.269-1.846.323-2.49.06-.644.173-1.177.34-1.594.167-.417 1.427-.63 3.769-.639l3.098-.059.08-.471.088-.632.167-2.71a218.94 218.94 0 0 0-5.368.027c-.683.014-1.275.03-1.781.051Zm-54.75 2.259.028.237c-.278 2.407-.516 4.446-.716 6.116a51.643 51.643 0 0 1-.688 4.442 95.835 95.835 0 0 0-.709 3.789c-.206 1.241-.748 3.028-1.623 5.367 6.905-.466 10.576-.79 11.082-.978a4.53 4.53 0 0 0 1.273-.721c.344-.292.65-.659.916-1.103.267-.452.491-.883.674-1.294a7.11 7.11 0 0 0 .435-1.363c.113-.491.346-1.623.7-3.389.354-1.766.6-3.294.735-4.584.142-1.296.193-2.318.158-3.065-.035-.754-.106-1.383-.213-1.892-.1-.509-.239-.878-.422-1.106a1.446 1.446 0 0 0-.735-.495c-.308-.101-2.245-.155-5.83-.167l-5.065.206Zm35.525-1.445c-1.582.064-2.676.159-3.281.288-.6.122-1.087.38-1.462.766a2.792 2.792 0 0 0-.725 1.299c-.108.48-.236 1.15-.383 2.01-.148.854-.351 1.938-.607 3.246-.251 1.309-.219 2.195.094 2.662.318.46.92.732 1.799.813.884.079 1.838.057 2.866-.066 1.025-.123 1.758-.043 2.196.24.443.276.547.99.318 2.143-.231 1.147-.82 1.816-1.771 2.009-1.759.148-2.69.163-2.786.043-.096-.128-.155-.435-.177-.923l.364-1.362-3.878.21-.632 1.812c-.874 3.034.31 4.383 3.541 4.041l4.894-.295c1.508-.535 2.476-1.144 2.912-1.829.435-.691.853-1.896 1.254-3.609.401-1.712.438-3.03.109-3.962-.323-.933-.845-1.53-1.57-1.786-.721-.263-1.582-.332-2.586-.207-1.006.119-1.654.104-1.941-.042-.288-.147-.477-.344-.566-.598-.091-.26-.079-.712.04-1.352.119-.64.218-1.16.296-1.561.079-.401.434-.616 1.065-.643l2.188-.097c.822-.036 1.086.572.79 1.828l3.852-.177c.133-.94.219-1.8.257-2.583.044-.79-.169-1.395-.64-1.818-.472-.423-1.408-.609-2.807-.551-.442-.031-1.446-.013-3.023.051Zm29.706-1.208c-.043.001-.077.387-.098 1.157-.021.77-.117 1.773-.291 3.009a144.746 144.746 0 0 1-.626 4.102 45.59 45.59 0 0 1-.963 4.477 59.914 59.914 0 0 1-1.192 3.997l-.6 1.772.032.078 3.871-.233c.406-1.096.693-1.955.861-2.578.173-.624.589-2.264 1.241-4.918l2.483 7.21 2.979-.169c.591-1.714.968-2.879 1.135-3.496.171-.618.531-2.223 1.08-4.81.553-2.59.991-5.94 1.315-10.055l-3.897.159a57.623 57.623 0 0 1-.249 3.676c-.13 1.325-.444 3.436-.944 6.335l-2.991-9.841-3.146.128Zm-49.197 2.158c-.328 2.52-.597 4.451-.808 5.79a81.215 81.215 0 0 1-.703 3.947 54.084 54.084 0 0 1-1.031 4.144c-.417 1.461-.998 3.278-1.74 5.453l-.043.087 11.508-.693a84.217 84.217 0 0 0 1.449-4.045l-7.486.344c.21-.544.6-1.89 1.164-4.038l7.322-.382c.395-1.489.687-2.793.876-3.913l-7.272.277a63.06 63.06 0 0 0 .433-3.204l7.269-.25c.189-.949.317-2.274.386-3.968l-7.123.279-4.201.172Zm63.744-2.603a230.708 230.708 0 0 1-.707 5.414 79.98 79.98 0 0 1-.615 3.691 53.927 53.927 0 0 1-.902 3.873c-.365 1.365-.87 3.063-1.52 5.095l-.041.081 10.075-.607a83.962 83.962 0 0 0 1.27-3.781l-6.554.296c.184-.508.522-1.766 1.016-3.774l6.414-.334a44.22 44.22 0 0 0 .768-3.661l-6.371.238c.127-.807.253-1.807.379-2.998l6.369-.214c.165-.888.278-2.128.338-3.714l-6.241.244-3.678.151Zm-171.903 7.04-11.003.561a130.873 130.873 0 0 0-5.275 11.49c-1.566 3.863-2.575 8.109-3.02 12.731l10.513-.655c-.302-3.187.89-7.717 3.562-13.565 2.692-5.822 4.43-9.336 5.223-10.562Zm-15.314.955-7.428.417c-2.067 3.707-3.33 6.129-3.78 7.26-.45 1.095-1.42 3.478-2.915 7.153-1.499 3.647-2.163 6.864-1.988 9.641l7.547-.47c.275-3.191.773-5.953 1.495-8.28.721-2.324 3.085-7.578 7.07-15.721Zm-17.316 1.105c-.946 1.082-1.839 2.5-2.682 4.252a213.802 213.802 0 0 0-1.641 3.378c-.212.534-.652 1.416-1.324 2.646-.672 1.193-1.894 5.768-3.67 13.745l5.418-.337c.21-3.224.703-5.9 1.477-8.033a55.699 55.699 0 0 1 2.473-5.829c.909-1.793 2.584-5.142 5.018-10.032l-5.07.21Zm-4.64.809-3.504.257c-2.313 3.44-3.864 6.238-4.65 8.382a147.188 147.188 0 0 1-2.691 7.035c-1.044 2.511-1.478 5.181-1.298 8.002l3.289-.428c.465-3.492.86-5.775 1.181-6.846.358-1.111 1.07-3.235 2.14-6.37 1.068-3.13 2.916-6.476 5.533-10.032Zm76.008-1.47 4.451-.194c2.28-.03 3.568.171 3.87.608.333.4.468.948.407 1.642a28.08 28.08 0 0 1-.315 2.348c-.121.871-.228 1.463-.32 1.779-.06.279-.226.668-.499 1.167-.242.462-.909 1.016-2.002 1.663.638 1.629 1.062 3.616 1.275 5.959l-3.467.201c-.122-1.209-.29-2.084-.504-2.628-.214-.544-.641-1.218-1.284-2.019-.153.635-.294 1.13-.416 1.485-.123.32-.474 1.421-1.058 3.301l-3.51.204-.094.006c.772-2.177 1.328-3.849 1.667-5.02.339-1.205.632-2.388.878-3.552.277-1.165.492-2.363.646-3.591.153-1.262.245-2.381.275-3.359Zm10.81-.472.541-.023 9.252-.404a268.932 268.932 0 0 1-.175 2.675c-.03.377-.047.566-.047.566l-3.244.152c-.06 1.546-.179 2.818-.357 3.821a80.056 80.056 0 0 1-.492 2.857 27.831 27.831 0 0 1-.669 3.023 53.74 53.74 0 0 1-.626 2.099l-3.234.188 1.078-4.249c.749-3.379 1.109-5.904 1.079-7.589l-3.24.152.134-2.234v-1.034Zm-20.656 1.246c.336-.014.753-.027 1.253-.031 1.03-.045 2.445-.055 4.244-.03a9.95 9.95 0 0 1 .185 1.937c.03.663.016 1.486-.046 2.469a31.93 31.93 0 0 1-.372 3.166 32.99 32.99 0 0 1-.605 3.24c-.218 1.028-.559 2.36-1.025 3.999l-2.897.168.701-2.73.235-1.33-2.907.106-.473 2.087-.659 2.047-3.075.179c.442-1.369.775-2.518.996-3.449.221-.966.427-1.916.616-2.844.22-.929.376-1.872.47-2.829l.379-2.875c.126-.993.443-1.768.946-2.319.502-.587.923-.888 1.268-.903.172-.025.43-.043.766-.058Zm-14.574.882 5.851-.259c1.525-.068 2.415.12 2.668.569.285.412.411 1.01.38 1.79-.032.779-.144 1.685-.334 2.72a64.061 64.061 0 0 1-.33 2.034 7.432 7.432 0 0 1-.288 1.024c-.096.324-.299.671-.616 1.042-.317.336-.62.563-.905.685-.286.121-1.782.254-4.499.4l-.144.487-.723 2.819-.577 1.585-3.143.182-.094.006a56.67 56.67 0 0 0 1.113-3.922c.29-1.087.548-2.279.774-3.576a35.77 35.77 0 0 0 .53-3.667c.13-1.112.225-2.044.29-2.796.064-.788.079-1.161.047-1.123Zm175.168-7.631c.792-.032 1.31.005 1.557.111.329.142.414.619.253 1.433-.158.807-.268 1.34-.331 1.596-.06.251-.18.538-.357.859a1.396 1.396 0 0 1-.78.672c-.35.128-1.063.217-2.139.271.069-.226.204-.801.402-1.731.202-.93.371-1.982.509-3.155.325-.027.621-.046.886-.056Zm-93.338 4.145c1.107-.049 1.921-.061 2.446-.034.524.026.864.176 1.018.449.161.272.265.644.313 1.114.047.47.063 1.132.046 1.985a16.173 16.173 0 0 1-.276 2.624c-.16.889-.333 1.797-.517 2.724-.179.927-.368 1.534-.565 1.824a1.561 1.561 0 0 1-.725.598c-.286.116-1.463.233-3.538.349.264-.77.458-1.534.585-2.297.132-.762.283-1.578.451-2.442.174-.865.292-1.635.358-2.314s.128-1.324.182-1.93c.054-.607.126-1.488.222-2.65Zm-54.421 4.568a26.962 26.962 0 0 1-.46 2.73c-.183.775-.292 1.27-.323 1.481.948-.048 1.574-.132 1.879-.251.335-.121.58-.324.732-.609.152-.285.243-.517.273-.692.06-.211.151-.668.273-1.368.152-.701.079-1.095-.225-1.185-.274-.125-.99-.16-2.15-.106Zm-11.446.692c-.63.027-1.005.132-1.122.313-.188.291-.342.681-.467 1.18-.125.498-.33 1.69-.612 3.57l-.046.161 3.045-.105c.219-1.275.344-2.142.375-2.6.062-.495.14-1.323.234-2.486a13.16 13.16 0 0 0-1.407-.033Zm-11.138.714c-.414.01-.997.061-1.748.15l-.046-.002a49.1 49.1 0 0 1-.334 2.951 41.39 41.39 0 0 0-.148 1.397c1.311-.067 2.093-.123 2.348-.171a.957.957 0 0 0 .622-.565c.128-.29.208-.774.24-1.45.063-.712.093-1.226.093-1.545 0-.32-.095-.547-.286-.68-.08-.067-.326-.095-.74-.085Z"/></svg>