<svg class="intro__ee-mid" xmlns="http://www.w3.org/2000/svg" viewBox="0 0 286 45" fill="none"><g clip-path="url(#a)"><path fill="url(#b)" d="M171.222 2.904c.005.177-.002.955-.022 2.336-.02 1.38-.073 3.143-.159 5.288a78.183 78.183 0 0 1-.559 6.82 102.96 102.96 0 0 1-.991 6.472c-.355 1.917-1.111 5.145-2.273 9.704l.23-.148 16.974-1.048.136-.122a77.386 77.386 0 0 0 1.636-6.372l-10.838.428c.367-1.524.684-3.29.955-5.297.277-2.015.508-3.979.694-5.888.183-1.92.297-3.853.337-5.799.048-1.956 0-4.052-.143-6.29l-5.977-.084Zm26.337-.204c-2.393.018-4.031.052-4.896.102-.862.049-1.531.281-2.008.701-.47.42-.752.974-.843 1.658-.093.674-.203 2.309-.332 4.908-.128 2.602-.287 4.72-.477 6.353a71.613 71.613 0 0 1-.625 4.428c-.225 1.308-.77 3.934-1.64 7.894-.056.165-.087.538-.09 1.12a2.793 2.793 0 0 0 .453 1.573c.314.465.976.665 1.981.604l5.844-.361 5.185-.32c.611-.038 1.186-.298 1.723-.78a6.336 6.336 0 0 0 1.305-1.632c.335-.604.629-1.563.882-2.88.252-1.316.512-2.849.779-4.598.267-1.758.514-3.862.743-6.31.228-2.445.363-4.786.405-7.025.049-2.25-.173-3.702-.666-4.36-.493-.67-1.308-1.021-2.445-1.054-1.144-.033-2.898-.04-5.278-.022Zm45.121-.337a81.822 81.822 0 0 1-.269 5.742 92.741 92.741 0 0 1-.674 6.201c-.282 2.011-.631 4.054-1.05 6.125-.419 2.076-1.097 4.97-2.031 8.695l.076-.004 4.939-.307 1.337-5.708c.134-.582.292-1.442.476-2.573.924 1.414 1.559 2.61 1.906 3.587.353.966.655 2.47.908 4.51l4.749-.297c-.448-3.985-1.149-7.385-2.104-10.197 1.444-1.005 2.325-1.916 2.647-2.74.328-.821.542-1.492.643-2.014.101-.53.219-1.523.354-2.975.142-1.452.236-2.775.286-3.969.048-1.194-.149-2.15-.594-2.87-.448-.729-2.234-1.147-5.39-1.254l-6.209.048ZM45.117 4.056c-1.417.012-2.381.03-2.89.055-.507.023-.902.132-1.183.325a1.141 1.141 0 0 0-.499.759c-.056.308-.128 1.058-.214 2.247-.085 1.19-.187 2.159-.305 2.905-.114.747-.24 1.42-.382 2.02-.136.597-.464 1.793-.984 3.59-.034.076-.052.246-.056.511-.005.26.081.502.257.723.181.216.564.314 1.15.298l3.426-.093 3.075-.085c.364-.01.71-.122 1.033-.34.327-.22.59-.468.79-.739.203-.276.383-.719.54-1.327.158-.608.32-1.318.488-2.129.168-.815.328-1.791.476-2.928a34.32 34.32 0 0 0 .277-3.27c.04-1.047-.087-1.724-.382-2.03-.295-.311-.783-.472-1.467-.486a117.72 117.72 0 0 0-3.15-.006Zm-15.16.13a29.51 29.51 0 0 1-.24 2.96 34.846 34.846 0 0 1-.54 3.192 39.69 39.69 0 0 1-.82 3.146c-.324 1.063-.84 2.542-1.553 4.442l.055-.001 3.642-.1 1.032-2.93c.104-.3.227-.74.372-1.323.677.738 1.14 1.36 1.392 1.869.255.503.47 1.283.645 2.341l3.568-.099c-.308-2.077-.81-3.849-1.508-5.316 1.094-.514 1.766-.983 2.015-1.41.255-.426.42-.775.5-1.046.081-.277.178-.794.292-1.551.118-.757.2-1.447.247-2.07.046-.624-.097-1.121-.429-1.496-.333-.38-1.678-.594-4.048-.645l-4.622.037Zm47.71-.38.062.423c-.37 4.283-.689 7.915-.958 10.89-.258 2.979-.595 5.62-1.01 7.926a166.637 166.637 0 0 0-1.084 6.772c-.309 2.222-1.2 5.427-2.683 9.63 12.599-.87 19.164-1.462 20.055-1.795.887-.345 1.627-.769 2.221-1.27.593-.513 1.112-1.16 1.558-1.938.445-.792.819-1.547 1.119-2.265.298-.731.527-1.526.686-2.386.17-.86.516-2.832 1.04-5.918.52-3.08.863-5.741 1.028-7.99.174-2.26.21-4.042.108-5.348-.105-1.319-.265-2.423-.48-3.317-.204-.894-.471-1.548-.806-1.955a2.759 2.759 0 0 0-1.318-.906c-.546-.195-3.974-.402-10.373-.627l-9.165.074Zm-25.355.258c-.033.001-.052.274-.051.823 0 .548-.055 1.262-.167 2.139a91.53 91.53 0 0 1-.413 2.907 28.294 28.294 0 0 1-.678 3.17 36.676 36.676 0 0 1-.878 2.82c-.296.835-.445 1.25-.445 1.25l.029.058 3.134-.086c.304-.772.518-1.377.64-1.817.127-.44.423-1.6.891-3.476l2.175 5.184 2.406-.057c.44-1.208.721-2.028.84-2.464.124-.436.379-1.57.762-3.398.387-1.831.665-4.207.833-7.126l-3.148.026a35.268 35.268 0 0 1-.117 2.61c-.075.941-.28 2.436-.619 4.49l-2.644-7.073-2.55.02Zm75.516-.555.023.267c.025-.084.06.527.102 1.835.042 1.309.092 3.319.151 6.03a75.272 75.272 0 0 1-.193 7.614c-.177 2.354-.322 4.58-.434 6.671-.112 2.082-.445 5.405-.998 9.98l8.782-.543c1.438-1.793 3.023-4.338 4.752-7.623 1.717-3.265 3.046-6.431 3.993-9.505.951-3.065 1.674-5.722 2.169-7.973.492-2.247.939-4.55 1.339-6.915l-6.566.054c-.524 3.01-1.018 5.588-1.484 7.731a91.142 91.142 0 0 1-1.658 6.448c-.633 2.167-2.045 5.517-4.247 10.071.809-6.395 1.217-11.351 1.222-14.883.007-3.53-.089-6.628-.285-9.296l-6.668.037Zm-65.344.586.023.903-.087 1.904 3.078-.039c.09 1.419-.18 3.54-.815 6.367l-.918 3.608 3.081-.083c.113-.315.287-.912.525-1.792.241-.886.44-1.726.594-2.519.154-.792.286-1.6.394-2.423.112-.829.192-1.893.239-3.189l3.023-.038.038-.497c.027-.332.057-1.092.095-2.278l-8.797.073-.473.003ZM18.19 4.51a185.37 185.37 0 0 1-.274 4.04 40.197 40.197 0 0 1-.313 2.788 31.311 31.311 0 0 1-.575 2.917c-.246 1.027-.426 1.736-.542 2.118-.11.378-.32.988-.631 1.833l3.36-.091c.542-1.72.854-2.73.938-3.029.084-.304.313-1.231.685-2.78l6.004-.116c.228-1.047.382-1.964.462-2.753l-5.974.037c.064-.609.112-1.363.143-2.263l5.965-.02c.092-.669.1-1.585.021-2.75l-5.917.041-3.352.028Zm87.33-.652c-.426 4.362-.784 7.705-1.075 10.024-.28 2.32-.616 4.603-1.002 6.846a91.593 91.593 0 0 1-1.561 7.196c-.648 2.546-1.559 5.716-2.74 9.519l-.072.154 19.764-1.22a143.848 143.848 0 0 0 2.218-6.923l-12.71.515c.331-.94.923-3.267 1.774-6.974l12.386-.488c.579-2.533.995-4.749 1.248-6.651l-12.274.22c.199-1.484.389-3.325.566-5.515l12.25-.112c.261-1.609.403-3.853.423-6.735l-11.985.084-7.21.06Zm45.399-.384c-.358 4.045-.66 7.144-.904 9.293a138.23 138.23 0 0 1-.846 6.347 89.774 89.774 0 0 1-1.328 6.666c-.551 2.357-1.326 5.293-2.331 8.811l-.064.143 17.013-1.05a141.164 141.164 0 0 0 1.9-6.422l-10.957.435c.284-.87.788-3.027 1.512-6.465l10.681-.42c.494-2.352.85-4.41 1.065-6.179l-10.589.184c.17-1.38.329-3.086.478-5.119l10.567-.088c.223-1.495.341-3.581.353-6.26l-10.343.07-6.207.054Zm75.352-.64a378.11 378.11 0 0 1-.651 8.085c-.171 1.871-.375 3.71-.616 5.517a87.85 87.85 0 0 1-.98 5.79c-.407 2.046-.983 4.593-1.73 7.644l-.047.123 12.896-.796c.519-1.875.994-3.738 1.423-5.59l-8.324.317c.211-.756.585-2.63 1.122-5.62l8.12-.32c.37-2.05.633-3.847.79-5.39l-8.054.126c.123-1.2.237-2.686.342-4.457l8.042-.054c.166-1.306.248-3.127.248-5.468l-7.874.053-4.707.04Zm-17.286.177c.026-.071.009.598-.051 2.01a1295.51 1295.51 0 0 1-.235 5.167c-.096 2.034-.301 4.274-.612 6.722a97.52 97.52 0 0 1-1.052 6.7c-.39 2.02-.92 4.507-1.59 7.467l.151-.009 5.042-.312.786-3.085 1.036-5.212.19-.901c4.265-.128 6.604-.312 7.072-.556.472-.242.932-.666 1.377-1.27.445-.611.744-1.238.899-1.878.16-.64.373-1.693.64-3.158.274-1.474.428-2.722.462-3.746.04-1.033.054-2.233.044-3.596-.011-1.373-.239-2.457-.687-3.254-.44-.798-1.808-1.188-4.122-1.168l-9.35.08Zm53.868.142a706.786 706.786 0 0 0-7.782 13.325l2.35 11.065 1.488-3.827 9.061-.418 1.933-7.914c.695-2.795 1.123-5.396 1.287-7.807l-8.974.22.637-4.644ZM45.178 6.52c.492-.007.858-.002 1.097.01.24.007.404.104.493.292.093.188.108.602.047 1.242a45.391 45.391 0 0 1-.242 1.998 42.725 42.725 0 0 1-.547 3.082c-.08.371-.16.64-.242.808a1.747 1.747 0 0 1-.313.438.663.663 0 0 1-.387.22c-.13.011-.493.036-1.088.075-.596.033-.989.034-1.179.004-.19-.03-.313-.107-.366-.238a1.055 1.055 0 0 1-.053-.438c.013-.157.025-.258.036-.301.257-1.09.42-1.812.493-2.169.076-.363.148-.769.217-1.218.073-.45.151-1.036.234-1.759.082-.722.138-1.177.166-1.363a.937.937 0 0 1 .203-.454.595.595 0 0 1 .421-.194c.179-.017.516-.03 1.01-.035Zm-11.22.215c.725-.006 1.2.036 1.43.121.305.115.392.48.264 1.092a24.295 24.295 0 0 1-.266 1.2 2.236 2.236 0 0 1-.302.641c-.15.24-.382.403-.7.492-.317.09-.968.143-1.954.16.058-.17.165-.605.325-1.305.162-.7.294-1.493.391-2.379.298-.012.57-.02.812-.022Zm163.74 1.297c.83-.015 1.445-.009 1.848.015.402.014.679.223.83.628.159.406.191 1.3.097 2.684a125.912 125.912 0 0 1-.375 4.318 119.177 119.177 0 0 1-.457 3.875 153.137 153.137 0 0 1-.413 2.806c-.129.805-.26 1.39-.394 1.755-.136.354-.31.673-.521.957-.205.284-.421.447-.647.49-.22.033-.832.1-1.838.204-1.008.094-1.675.112-1.998.055-.324-.059-.532-.229-.623-.51a2.893 2.893 0 0 1-.099-.953c.019-.341.039-.562.058-.658.418-2.378.685-3.955.803-4.735.123-.79.241-1.673.35-2.652.119-.98.241-2.256.369-3.827.129-1.57.215-2.555.262-2.958.053-.403.167-.734.336-.99a.93.93 0 0 1 .71-.425c.301-.036.87-.065 1.702-.08Zm17.894-.165c1.387-.062 2.192-.001 2.417.184.307.248.469.674.48 1.281.013.607-.005 1.54-.053 2.795-.041 1.256-.158 2.14-.353 2.653-.194.513-.495.847-.899 1.002-.405.156-1.637.27-3.708.34-.027-.225.036-1.13.193-2.719.156-1.598.255-3.373.296-5.323l.038-.108a45.5 45.5 0 0 1 1.589-.105Zm32.515-.567c.969-.012 1.607.065 1.912.23.408.22.532.92.373 2.1a72.41 72.41 0 0 1-.33 2.315 5.36 5.36 0 0 1-.392 1.236c-.195.463-.503.782-.925.958-.423.175-1.292.286-2.615.33.075-.328.213-1.172.412-2.527a55.65 55.65 0 0 0 .48-4.6c.399-.023.761-.038 1.085-.042ZM85.173 10.262c1.987-.036 3.449-.02 4.389.053.937.071 1.549.349 1.84.836.3.485.508 1.145.62 1.974.11.83.174 1.994.191 3.494.017 1.5-.1 3.039-.345 4.612a265.735 265.735 0 0 1-.767 4.786c-.266 1.631-.564 2.704-.898 3.213a2.642 2.642 0 0 1-1.264 1.05c-.506.202-2.614.398-6.355.584.434-1.366.745-2.726.93-4.078.194-1.352.418-2.793.672-4.323.265-1.53.438-2.896.518-4.098.08-1.202.15-2.34.213-3.413s.15-2.636.256-4.69ZM272.65 7.548c.027 1.903-.431 4.764-1.38 8.597-.952 3.867-1.564 6.23-1.831 7.075l3.693-.305a126.12 126.12 0 0 0 1.835-7.505c.527-2.49.914-5.133 1.161-7.93l-3.478.068Zm4.938-.01a75.124 75.124 0 0 1-.618 4.969c-.245 1.514-1.076 4.966-2.499 10.38l2.399-.17c.749-2.516 1.198-4.14 1.349-4.877.16-.723.486-2.238.977-4.539.49-2.296.738-4.231.745-5.81l-2.353.046Zm3.933-.08c-.14 1.786-.336 3.359-.589 4.72a51.673 51.673 0 0 1-.795 3.713 573.718 573.718 0 0 1-1.744 6.576l1.617-.085c.301-.702.601-1.626.902-2.772.302-1.145.491-1.9.57-2.264.079-.352.221-.909.425-1.668.206-.746.629-3.494 1.268-8.231l-1.654.012Zm3.687.052-.909.04a122.343 122.343 0 0 1-.191 2.37c-.033.444-.114 1-.238 1.67-.118.668-.273 1.623-.469 2.865-.188 1.242-.837 3.812-1.949 7.726l1.009.008c.844-2.476 1.37-4.38 1.578-5.72.217-1.339.467-2.788.749-4.347.289-1.543.43-3.08.42-4.612ZM34.639 20.277c-.06.002-.088.462-.088 1.38 0 .919-.098 2.113-.293 3.588a149.002 149.002 0 0 1-.717 4.892 46.917 46.917 0 0 1-1.17 5.355 62.138 62.138 0 0 1-1.516 4.79l-.769 2.127.048.096 5.397-.338c.522-1.314.887-2.344 1.098-3.088.218-.744.728-2.7 1.53-5.865l3.71 8.543 4.09-.244c.746-2.037 1.219-3.42 1.422-4.151.21-.733.644-2.633 1.295-5.693.656-3.062 1.128-7.019 1.414-11.874l-5.327.166a58.002 58.002 0 0 1-.204 4.354c-.128 1.57-.478 4.072-1.055 7.51l-4.5-11.684-4.366.136Zm18.74-.584.041.256c-.236 2.61-.44 4.821-.611 6.632-.166 1.813-.38 3.422-.642 4.826a98.892 98.892 0 0 0-.687 4.115c-.194 1.348-.756 3.294-1.686 5.844 7.942-.553 12.13-.928 12.7-1.134.57-.214 1.046-.474 1.428-.783a4.62 4.62 0 0 0 1.002-1.197c.287-.487.529-.952.724-1.395.193-.45.342-.94.446-1.47.11-.53.336-1.747.676-3.65.341-1.9.565-3.544.673-4.93.116-1.396.142-2.493.076-3.297-.066-.811-.17-1.49-.307-2.038-.132-.548-.304-.946-.52-1.192a1.73 1.73 0 0 0-.851-.538c-.353-.112-2.557-.188-6.65-.23l-5.812.18Zm-37.985 1.37c-.341 2.933-.624 5.18-.854 6.738a82.465 82.465 0 0 1-.788 4.604 55.62 55.62 0 0 1-1.216 4.835c-.502 1.708-1.205 3.836-2.115 6.386l-.058.104 15.206-.952a88.196 88.196 0 0 0 1.75-4.696l-9.84.465c.257-.634.72-2.203 1.386-4.703l9.606-.476c.461-1.721.795-3.226 1-4.519l-9.534.325c.16-1.002.312-2.243.456-3.72l9.516-.274c.211-1.094.331-2.618.358-4.573l-9.322.28-5.551.175Zm42.734 2.462c1.265-.047 2.198-.055 2.798-.022.6.032.992.195 1.177.49.193.295.324.696.394 1.204.07.507.112 1.221.121 2.14.01.921-.066 1.863-.225 2.83-.152.96-.316 1.94-.495 2.94-.171 1.001-.365 1.66-.58 1.973a1.688 1.688 0 0 1-.807.65c-.324.127-1.667.257-4.044.389.277-.835.474-1.667.593-2.493.124-.825.269-1.706.432-2.642.169-.935.278-1.77.33-2.506a279.595 279.595 0 0 0 .306-4.953Z"/></g><defs><linearGradient id="b" x1="141.488" x2="139.592" y1="-38.62" y2="54.418" gradientUnits="userSpaceOnUse"><stop stop-color="#FF4E1E"/><stop offset=".39" stop-color="#FFCA00"/><stop offset=".54" stop-color="#FFCA00"/><stop offset="1" stop-color="#FF4E1E"/></linearGradient><clipPath id="a"><path fill="#fff" d="M0 0h286v45H0z"/></clipPath></defs></svg>