<svg class="intro__ee-top" xmlns="http://www.w3.org/2000/svg" viewBox="0 0 286 43" fill="none"><g clip-path="url(#a)"><path fill="url(#b)" d="M120.98 5.99c-2.308-.144-3.863-.212-4.651-.207-.78.005-1.515.604-2.201 1.8-.678 1.186-.709 2.889-.093 5.101a588.385 588.385 0 0 0 1.917 6.618 74.684 74.684 0 0 1 1.617 6.404c.436 2.07.833 4.171 1.189 6.298.357 2.124.674 4.735.953 7.834l6.861.007-.314-4.743-.711-4.478 6.561.235.619 2.919.853 6.074 6.373.007c-.395-3.634-.797-6.568-1.204-8.805a115.639 115.639 0 0 0-1.528-7.074 82.224 82.224 0 0 0-2.041-7.056c-.75-2.225-1.471-4.085-2.162-5.58a67.003 67.003 0 0 0-2.18-4.381c-4.272-.52-7.568-.845-9.858-.974Zm89.728 5.064c-1.679-.104-2.809-.155-3.381-.145-.567.01-1.097.528-1.589 1.55-.487 1.017-.502 2.466-.046 4.348.461 1.877.934 3.754 1.417 5.628.481 1.86.881 3.676 1.2 5.452.325 1.763.621 3.552.889 5.365.268 1.81.508 4.036.724 6.678l4.996.005-.248-4.05-.537-3.823 4.791.187.466 2.496.647 5.195 4.671.006c-.304-3.113-.61-5.627-.918-7.542a113.559 113.559 0 0 0-1.151-6.056 78.78 78.78 0 0 0-1.524-6.033c-.557-1.9-1.092-3.489-1.604-4.763a60.625 60.625 0 0 0-1.611-3.734c-3.12-.415-5.525-.67-7.192-.764Zm33.136 1.914c-2.049-.115-3.442-.175-4.171-.176-.722-.001-1.229.186-1.512.56-.285.372-.367.88-.249 1.525.123.635.511 2.178 1.161 4.626.649 2.442 1.129 4.42 1.44 5.94a84.85 84.85 0 0 1 .742 4.098c.186 1.204.479 3.613.881 7.225-.001.149.076.492.233 1.029.163.525.441 1.016.836 1.473.4.446 1.016.668 1.846.67.833 0 2.443.017 4.811.049 2.347.04 3.771.042 4.29.004a1.623 1.623 0 0 0 1.253-.665c.317-.424.533-.898.649-1.427.12-.539.103-1.41-.049-2.616a113.513 113.513 0 0 0-.631-4.228c-.263-1.624-.642-3.576-1.137-5.857a111.491 111.491 0 0 0-1.637-6.6c-.596-2.13-1.201-3.522-1.814-4.176-.614-.664-1.415-1.045-2.402-1.14-.993-.095-2.503-.199-4.54-.314Zm-108.113-6.04c.072.197.382 1.062.927 2.593a267.05 267.05 0 0 1 2.019 5.835 93.432 93.432 0 0 1 2.146 7.432c.645 2.597 1.152 4.918 1.522 6.965.368 2.044.81 5.47 1.323 10.272l.2-.142 18.868.018.111-.121c-.11-2.374-.32-4.611-.628-6.711l-12.192-.28c-.196-1.616-.539-3.503-1.03-5.657-.493-2.169-1.021-4.289-1.584-6.36a95.173 95.173 0 0 0-1.956-6.336c-.741-2.155-1.661-4.478-2.755-6.972l-6.971-.535ZM45.159 1.916a80.2 80.2 0 0 1 2.05 4.674 172.499 172.499 0 0 1 2.221 5.775 108.98 108.98 0 0 1 2.306 6.976 175.591 175.591 0 0 1 1.863 6.763A99.385 99.385 0 0 1 55 32.273c.404 2.03.699 4.55.88 7.562l8.711.008c-.348-3.487-.754-6.565-1.218-9.234-.452-2.672-1.104-5.58-1.953-8.731-.851-3.17-1.766-6.04-2.746-8.604-.97-2.571-2.434-6.129-4.393-10.683l-9.123-.676Zm22.11 1.26a70.86 70.86 0 0 0-2.606-.104c-1.355-.021-2.373.442-3.054 1.392-.67.94-.924 1.75-.76 2.437.165.67.327 1.268.486 1.79.17.522.462 1.435.871 2.738.41 1.301.911 2.97 1.51 5.004.606 2.032 1.274 4.52 2.004 7.465.728 2.936 1.29 5.462 1.684 7.578.407 2.102.79 3.61 1.145 4.525.355.916 1.099 1.79 2.227 2.624 1.136.818 2.031 1.226 2.686 1.227l1.168.002 16.205.015-.682-5.417-.577-2.695-10.238-.138c-1.062-.015-1.892-.306-2.488-.871-.598-.58-.976-1.003-1.133-1.27-.145-.281-.32-.735-.523-1.363-.192-.641-.445-1.636-.763-2.986-.318-1.349-.744-3.017-1.278-5.002-.535-2-.962-3.635-1.279-4.9-.306-1.278-.443-2.165-.412-2.656.04-.505.178-.853.414-1.043.235-.202 1.37-.26 3.395-.17 2.024.091 4.942.272 8.731.545l-.228-.913-.375-1.253-1.943-5.347c-4.16-.43-7.66-.752-10.48-.964-1.418-.105-2.655-.19-3.707-.25ZM29.982 1.169l-2.538 9.392L17.738.635 6.5.008C6.413-.1 6.848.907 7.802 3.02c.967 2.092 2.03 4.716 3.19 7.869 1.157 3.13 2.15 6.142 2.98 9.042.841 2.879 1.55 5.668 2.125 8.373.588 2.7 1.101 6.468 1.541 11.3l.156.174 9.053.01c.129-.115.04-1.579-.26-4.393a110.727 110.727 0 0 0-1.15-8.066c-.466-2.567-1.474-6.334-3.028-11.308l8.704 8.244 4.18-8.496c1.752 4.722 2.993 8.389 3.726 11.012.73 2.618 1.484 6.96 2.261 13.02l8.534.008c-.232-3.356-.791-7.345-1.682-11.974-.88-4.654-1.548-7.698-2.005-9.125-.456-1.443-1.183-3.709-2.182-6.802-1.001-3.102-2.39-6.448-4.171-10.043l-9.792-.697Zm-12.188 38.61h-.01l.148.153-.138-.153ZM173.397 9.2c-2.302-.129-3.872-.13-4.696-.007-.817.126-1.439.478-1.867 1.059-.42.582-.529 1.274-.326 2.071.21.786.526 1.94.946 3.465.427 1.521.911 3.341 1.448 5.454.544 2.097 1.196 3.54 1.956 4.333.764.79 1.814 1.247 3.147 1.37l4.237.353c1.492.125 2.625.326 3.404.6.775.262 1.35 1.351 1.722 3.266.38 1.914.046 3.013-1.007 3.302-2.852-.032-4.4-.156-4.618-.371-.218-.216-.414-.521-.59-.916-.168-.395-.361-1.32-.58-2.772l-5.563-.1.23 2.896c.656 4.846 3.254 7.15 7.743 6.915l6.861.005c1.827-.704 2.832-1.582 3.024-2.637.2-1.064.103-2.905-.294-5.525-.389-2.623-.895-4.718-1.517-6.287-.624-1.571-1.709-2.542-3.256-2.912a22.714 22.714 0 0 0-4.522-.632c-1.459-.049-2.448-.21-2.963-.484a3.408 3.408 0 0 1-1.223-1.071c-.292-.438-.605-1.215-.937-2.333-.324-1.127-.524-1.976-.601-2.543-.067-.566.327-.87 1.179-.91.858-.039 1.787.067 2.788.315.996.246 1.782 1.225 2.361 2.933l5.668.114a61.293 61.293 0 0 0-1.237-4.195c-.43-1.281-1.117-2.302-2.064-3.061-.952-.774-2.427-1.217-4.432-1.33-.67-.115-2.138-.237-4.421-.365Zm85.944 4.813c-1.646-.092-2.767-.082-3.355.029-.583.112-1.026.414-1.328.907-.297.495-.371 1.08-.222 1.752.153.663.381 1.636.687 2.921a223.7 223.7 0 0 1 1.056 4.599c.399 1.77.87 2.99 1.415 3.657.551.665 1.302 1.048 2.256 1.148l3.038.286c1.072.101 1.886.267 2.447.498.559.22.976 1.14 1.252 2.765.281 1.622.045 2.556-.711 2.802-2.05-.022-3.16-.125-3.317-.307-.158-.182-.3-.44-.427-.775-.122-.334-.264-1.116-.427-2.345l-3.982-.072.177 2.447c.488 4.097 2.357 6.043 5.574 5.845l4.933.003c1.313-.598 2.035-1.343 2.169-2.238.14-.905.061-2.47-.236-4.694-.291-2.227-.664-4.006-1.12-5.336-.457-1.332-1.24-2.151-2.356-2.46a13.992 13.992 0 0 0-3.254-.516c-1.047-.034-1.756-.166-2.125-.398a2.603 2.603 0 0 1-.882-.9c-.212-.37-.438-1.026-.681-1.97-.237-.953-.383-1.67-.44-2.15-.051-.478.23-.737.84-.776.614-.038 1.282.046 2 .25.714.203 1.283 1.027 1.706 2.472l4.078.067a59.761 59.761 0 0 0-.909-3.554c-.315-1.085-.814-1.946-1.499-2.584-.688-.65-1.747-1.015-3.187-1.095-.481-.093-1.534-.187-3.17-.278Zm-72.823-3.978.091.254c-.003-.077.196.498.596 1.729.407 1.23 1.007 3.114 1.798 5.65.797 2.529 1.672 5.842 2.623 9.933a241.733 241.733 0 0 1 2.53 12.331l7.543.007c.782-1.553 1.496-3.786 2.14-6.697.651-2.903.986-5.749 1.006-8.538.021-2.79-.05-5.219-.211-7.29a119.645 119.645 0 0 0-.659-6.404l-5.822-.325c.346 2.796.599 5.18.76 7.156.168 1.966.262 3.934.28 5.904.026 1.97-.32 4.982-1.04 9.045-1.003-5.841-1.978-10.407-2.928-13.692-.951-3.294-1.882-6.2-2.791-8.717l-5.916-.346Zm34.63 1.948c.477 1.333 1.162 3.448 2.055 6.336l4.549.199c.944 2.672 1.734 5.644 2.373 8.92.636 3.268 1.342 7.482 2.118 12.636l4.9.005c-.558-4.421-1.001-7.483-1.33-9.184a114.793 114.793 0 0 0-1.136-5.223c-.424-1.791-1.04-4.132-1.848-7.026l5.278.232-.305-1.076c-.197-.727-.693-2.383-1.489-4.973l-14.38-.803-.785-.043ZM85.124 4.435c.9 2.63 1.676 4.85 2.328 6.665.649 1.797 1.312 3.845 1.986 6.142.684 2.28 1.322 4.535 1.915 6.767a69.956 69.956 0 0 1 1.441 6.433c.359 2.06.756 5.197 1.193 9.41h.13l7.868.008c-.355-4.16-.648-7.09-.882-8.79-.224-1.7-.529-3.52-.918-5.457l6.665.291c.533 2.121.948 4.074 1.242 5.858.303 1.77.711 4.523 1.222 8.256l7.394.005c-.125-2.653-.333-4.946-.627-6.88a73.233 73.233 0 0 0-1.226-6.193 142.331 142.331 0 0 0-1.779-6.81 109.19 109.19 0 0 0-2.031-6.404c-.685-1.937-1.782-4.608-3.297-8.022l-7.983-.463c.72 1.403 1.509 3.188 2.365 5.354.854 2.149 1.78 4.833 2.778 8.052l-6.707-.388c-.772-2.551-1.44-4.617-2.003-6.193-.553-1.593-1.508-3.978-2.867-7.165l.371.003-2.953-.166-5.625-.313ZM245.559 17.79c.706.033 1.231.072 1.581.118.348.035.65.258.904.67.255.412.548 1.299.882 2.658.339 1.35.664 2.76.976 4.231.316 1.46.571 2.706.764 3.743.192 1.035.353 1.943.482 2.723.13.77.187 1.33.174 1.68-.008.34-.056.645-.146.916-.089.262-.225.405-.407.433-.178.017-.679.011-1.504-.018a59.425 59.425 0 0 0-1.671-.062c-.287-.003-.511-.147-.676-.434a3.938 3.938 0 0 1-.367-.934 11.739 11.739 0 0 1-.151-.634h.001c-.354-2.285-.6-3.808-.738-4.57a71.204 71.204 0 0 0-.495-2.562c-.193-.96-.475-2.205-.844-3.734a135.27 135.27 0 0 1-.668-2.91c-.077-.397-.083-.718-.014-.96.074-.244.234-.368.479-.377.25-.017.73-.011 1.438.023ZM124.71 12.352c.643.047 1.384.125 2.22.234.992 2.643 1.677 4.5 2.058 5.574.389 1.062.895 2.988 1.522 5.78l-6.561-.199c-1.37-4.519-2.161-7.344-2.374-8.462-.205-1.13-.207-1.969-.008-2.514.156-.418 1.207-.556 3.143-.413Zm88.74 4.11c.469.037 1.008.098 1.618.187a361.54 361.54 0 0 1 1.526 4.753c.288.905.666 2.551 1.134 4.935l-4.786-.15c-1.017-3.85-1.605-6.257-1.763-7.21-.153-.963-.16-1.678-.017-2.145.111-.358.877-.48 2.288-.37Z"/></g><defs><linearGradient id="b" x1="141.476" x2="139.579" y1="3.285" y2="96.355" gradientUnits="userSpaceOnUse"><stop stop-color="#FF4E1E"/><stop offset=".39" stop-color="#FFCA00"/><stop offset=".54" stop-color="#FFCA00"/><stop offset="1" stop-color="#FF4E1E"/></linearGradient><clipPath id="a"><path fill="#fff" d="M0 0h286v43H0z"/></clipPath></defs></svg>