<svg class="intro__ee-btm" xmlns="http://www.w3.org/2000/svg" viewBox="0 0 286 28" fill="none"><g clip-path="url(#a)"><path fill="url(#b)" d="m80.123 2.555-.693 3.272-42.664 3.418c-1.087 1.917-1.95 3.753-2.586 5.506a338.653 338.653 0 0 1-1.688 4.499c-.467 1.265-.777 3.094-.933 5.49l45.12-4.605-.523 3.622 11.658-11.976-7.69-9.226ZM151.413.83a30.72 30.72 0 0 1-.151 2.496 36.05 36.05 0 0 1-.362 2.702c-.149.878-.334 1.77-.552 2.676-.22.906-.571 2.17-1.055 3.793l.039-.003 2.52-.235.702-2.504c.071-.256.156-.632.253-1.127.473.591.799 1.094.976 1.51.18.413.333 1.059.459 1.942l2.479-.232c-.224-1.734-.58-3.203-1.073-4.407.759-.478 1.223-.903 1.395-1.272.175-.37.289-.67.345-.901.054-.236.118-.676.193-1.318.08-.642.133-1.225.163-1.752.029-.526-.071-.941-.305-1.241-.234-.305-1.17-.424-2.818-.362l-3.208.235Zm-30.739 2.271c.021.465.029.948.025 1.449a45.543 45.543 0 0 1-.063 1.81c-.034.702-.095 1.441-.186 2.218a63.585 63.585 0 0 1-.285 2.174c-.098.673-.28 1.672-.549 3l-.481 1.5 2.559-.239c.33-1.162.594-2.184.79-3.065.194-.88.36-1.833.494-2.856.137-1.027.221-1.948.25-2.764.031-.816.054-1.924.071-3.32l-2.625.093Zm6.36-.452c-.321.023-.588.048-.796.072-.416.047-.788.24-1.115.577-.329.339-.518.619-.565.84-.047.218-.07.41-.072.578-.001.165-.02.456-.059.874-.039.413-.093.947-.163 1.6a49.146 49.146 0 0 1-.318 2.418 53.757 53.757 0 0 1-.431 2.477c-.142.69-.215 1.187-.22 1.486-.005.297.029.544.097.739a.539.539 0 0 0 .367.367c.183.049.377.062.581.043l.364-.034 2.146-.199c1.389-.13 2.301-.283 2.744-.462.441-.184.729-.64.862-1.37.133-.735.26-1.344.379-1.825.121-.486.259-1.545.415-3.174l-.688.03-.971.055-.909.075-.672.076-.355 2.263c.442-.035.696-.021.764.039.066.054.088.16.062.314-.025.154-.07.398-.132.734-.06.335-.239.51-.538.524-.299.014-.55.02-.752.025-.203.001-.353-.04-.449-.128a.647.647 0 0 1-.18-.26 2.955 2.955 0 0 1-.054-.261 1.991 1.991 0 0 1 .011-.446c.02-.206.069-.53.14-.972.071-.446.147-.996.227-1.646.081-.65.133-1.18.153-1.59.025-.411.086-.752.184-1.02s.896-.43 2.387-.485l1.972-.102.041-.301.043-.403.051-1.726c-1.409.039-2.549.081-3.418.129-.434.023-.812.045-1.133.069ZM92.218 5.225l.023.15c-.128 1.535-.238 2.837-.33 3.902a32.592 32.592 0 0 1-.349 2.838c-.143.823-.267 1.631-.373 2.424-.105.793-.414 1.94-.923 3.445 4.387-.44 6.717-.722 7.036-.852.318-.134.582-.297.796-.485.213-.192.4-.432.56-.72a8.31 8.31 0 0 0 .403-.836c.109-.27.192-.561.25-.875.061-.315.186-1.04.376-2.17a32.49 32.49 0 0 0 .374-2.93c.063-.826.075-1.477.038-1.95a7.716 7.716 0 0 0-.175-1.2c-.074-.32-.17-.552-.291-.693a.922.922 0 0 0-.478-.3c-.198-.057-1.433-.052-3.716.016l-3.22.236Zm22.592-1.657c-1.007.072-1.701.156-2.084.25a1.75 1.75 0 0 0-1.351 1.358c-.058.309-.126.736-.202 1.286-.077.546-.184 1.24-.32 2.076-.133.838-.095 1.4.114 1.69.212.286.6.447 1.163.48a8.867 8.867 0 0 0 1.824-.101c.649-.1 1.117-.065 1.403.107.287.165.368.618.246 1.355-.124.733-.486 1.171-1.087 1.314-1.117.13-1.71.159-1.773.085-.064-.079-.108-.273-.132-.583l.204-.873-2.464.214-.366 1.165c-.495 1.947.287 2.78 2.338 2.495l3.11-.29c.949-.371 1.553-.778 1.817-1.223.262-.448.504-1.223.725-2.32.219-1.097.215-1.936-.013-2.521-.225-.586-.569-.955-1.036-1.102-.464-.153-1.014-.179-1.651-.078-.638.097-1.051.1-1.236.013a.685.685 0 0 1-.374-.368c-.063-.164-.064-.45-.001-.86s.114-.742.156-.999c.043-.256.264-.4.665-.43l1.392-.108c.522-.04.703.342.54 1.146l2.449-.193c.066-.6.102-1.149.111-1.647.011-.503-.136-.883-.445-1.142-.309-.26-.909-.358-1.798-.292-.283-.01-.922.022-1.924.096ZM133.7 2.18c-.027.002-.041.248-.039.737.003.49-.037 1.13-.123 1.92-.083.79-.186 1.663-.315 2.62a28.576 28.576 0 0 1-.522 2.865c-.218.95-.444 1.807-.677 2.567l-.345 1.139.021.049 2.46-.23c.237-.704.402-1.257.496-1.657.098-.4.329-1.45.689-3.152l1.729 4.533 1.894-.17c.342-1.102.558-1.85.651-2.246.096-.397.293-1.424.589-3.08.299-1.657.509-3.797.632-6.419l-2.479.182c0 .712-.027 1.493-.082 2.342-.056.845-.213 2.193-.472 4.047l-2.106-6.194-2.001.147Zm-31.282 2.396a152.72 152.72 0 0 1-.396 3.697 52.153 52.153 0 0 1-.367 2.524 34.24 34.24 0 0 1-.572 2.655 73.395 73.395 0 0 1-.996 3.503l-.025.056 7.313-.68c.306-.873.586-1.74.84-2.601l-4.76.374c.123-.35.343-1.214.659-2.592l4.654-.394c.221-.954.38-1.79.478-2.505l-4.625.327a39.36 39.36 0 0 0 .21-2.047l4.624-.31c.1-.606.155-1.451.164-2.53l-4.53.326-2.671.197Zm40.536-2.982a151.325 151.325 0 0 1-.339 3.457 52.23 52.23 0 0 1-.316 2.359 33.915 33.915 0 0 1-.496 2.48 71.232 71.232 0 0 1-.863 3.27l-.024.053 6.402-.595c.267-.815.51-1.625.732-2.43l-4.167.324c.106-.326.295-1.133.569-2.42l4.077-.345c.192-.894.331-1.674.414-2.344l-4.051.284c.064-.516.124-1.154.179-1.914l4.052-.268c.087-.568.133-1.359.139-2.368l-3.969.285-2.339.172ZM33.637 9.648l-6.994.585a83.116 83.116 0 0 0-3.124 7.414c-.918 2.489-1.474 5.209-1.662 8.155l6.68-.634c-.257-2.02.409-4.924 1.991-8.698 1.595-3.757 2.63-6.026 3.11-6.822Zm-9.732.926-4.72.42c-1.241 2.399-1.996 3.965-2.259 4.693-.264.705-.833 2.24-1.71 4.607-.88 2.35-1.236 4.408-1.069 6.17l4.796-.455c.111-2.035.371-3.8.784-5.295.41-1.492 1.808-4.88 4.178-10.14Zm-11.004 1.063c-.58.707-1.119 1.626-1.62 2.758-.502 1.11-.83 1.836-.975 2.182-.124.343-.387.913-.79 1.709-.403.773-1.088 3.706-2.055 8.814l3.442-.327c.07-2.054.329-3.766.778-5.137.448-1.37.933-2.622 1.455-3.757.542-1.159 1.54-3.323 2.99-6.482l-3.225.24Zm-2.937.61-2.226.236c-1.402 2.235-2.332 4.046-2.79 5.426a93.073 93.073 0 0 1-1.57 4.527c-.613 1.618-.834 3.324-.661 5.115l2.085-.342c.225-2.229.429-3.688.613-4.376.204-.713.614-2.078 1.231-4.094.616-2.012 1.724-4.178 3.318-6.492ZM58.333 9.73l2.83-.216c1.451-.066 2.275.034 2.477.306.22.247.317.594.293 1.036-.025.442-.074.941-.152 1.498-.06.556-.117.935-.168 1.137-.032.18-.13.43-.294.753-.144.3-.558.666-1.241 1.098.44 1.024.75 2.277.933 3.763l-2.203.2c-.102-.766-.227-1.319-.374-1.66-.147-.342-.434-.762-.86-1.257-.084.406-.163.724-.234.952-.071.206-.273.914-.606 2.121l-2.231.203-.06.005c.448-1.4.768-2.475.96-3.226.19-.773.352-1.53.486-2.276.152-.746.265-1.512.337-2.296.072-.805.108-1.518.107-2.14Zm6.874-.525.343-.026 5.884-.45c-.028.896-.047 1.464-.057 1.705l-.018.36-2.063.164c-.007.984-.057 1.796-.149 2.437-.075.62-.16 1.227-.254 1.827a17.831 17.831 0 0 1-.365 1.935 32.442 32.442 0 0 1-.356 1.347l-2.055.187.6-2.723c.407-2.164.584-3.777.53-4.847l-2.06.164.041-1.422-.021-.658Zm-13.128 1.222c.214-.016.479-.033.797-.046.655-.05 1.556-.086 2.703-.107.092.394.143.804.156 1.227.034.42.042.945.022 1.57a20.007 20.007 0 0 1-.172 2.021c-.076.72-.183 1.413-.32 2.072a39.583 39.583 0 0 1-.57 2.564l-1.841.167.39-1.75.123-.85-1.85.128-.258 1.335-.377 1.315-1.955.178c.254-.88.442-1.617.564-2.213.12-.618.233-1.226.334-1.82.122-.596.201-1.198.242-1.809l.182-1.835c.06-.635.245-1.133.554-1.494.308-.383.57-.584.79-.6.109-.02.272-.037.486-.053Zm-9.262.863 3.72-.285c.97-.075 1.54.025 1.711.305.19.256.283.634.279 1.13a12.54 12.54 0 0 1-.158 1.736 42.76 42.76 0 0 1-.168 1.3c-.034.206-.09.426-.163.658-.053.207-.176.432-.37.674-.195.22-.384.371-.563.455-.18.083-1.13.199-2.856.347l-.081.313-.404 1.808-.335 1.018-1.997.183-.06.005c.278-.982.487-1.82.628-2.516.163-.698.303-1.46.42-2.29.136-.853.224-1.634.264-2.342.058-.71.1-1.304.126-1.783.024-.503.027-.74.007-.716ZM154.2 2.796c.504-.037.835-.025.994.038.213.083.276.385.19.906-.083.516-.142.857-.177 1.021-.033.16-.104.345-.21.554a.894.894 0 0 1-.483.443c-.221.09-.673.16-1.356.216.039-.144.113-.513.22-1.108.109-.596.196-1.268.26-2.016.206-.024.394-.043.562-.054ZM94.852 7.373a18.367 18.367 0 0 1 1.556-.073c.335.006.554.095.658.264.108.17.182.404.222.702.04.299.064.719.07 1.262.006.542-.034 1.1-.122 1.673-.083.569-.176 1.15-.274 1.742-.095.593-.202.983-.322 1.172a.989.989 0 0 1-.449.394c-.18.081-.928.18-2.247.296.154-.495.262-.985.326-1.472.069-.487.148-1.01.237-1.562.093-.553.153-1.045.182-1.479.028-.432.054-.844.076-1.23s.05-.948.087-1.689Zm-34.56 4.036a17.15 17.15 0 0 1-.237 1.745c-.101.497-.16.813-.175.948.602-.05 1-.116 1.19-.198a.821.821 0 0 0 .454-.402 1.61 1.61 0 0 0 .16-.446c.035-.135.083-.428.147-.875.081-.45.027-.698-.168-.749-.177-.074-.633-.08-1.371-.023Zm-7.274.678c-.4.03-.637.105-.709.222-.112.189-.203.44-.272.76-.07.32-.175 1.082-.317 2.283l-.026.103 1.937-.13c.113-.816.175-1.37.185-1.661.03-.316.063-.844.098-1.585a8.248 8.248 0 0 0-.896.008Zm-7.077.686c-.264.015-.635.06-1.11.131h-.03a31.74 31.74 0 0 1-.152 1.883c-.044.548-.067.846-.066.891.834-.07 1.33-.121 1.492-.157a.61.61 0 0 0 .384-.372c.075-.188.117-.497.123-.927.026-.455.035-.782.028-.984-.006-.203-.072-.345-.196-.426-.052-.041-.21-.054-.473-.039Z"/></g><defs><linearGradient id="b" x1="141.5" x2="139.604" y1="-78.869" y2="14.171" gradientUnits="userSpaceOnUse"><stop stop-color="#FF4E1E"/><stop offset=".39" stop-color="#FFCA00"/><stop offset=".54" stop-color="#FFCA00"/><stop offset="1" stop-color="#FF4E1E"/></linearGradient><clipPath id="a"><path fill="#fff" d="M0 0h158v28H0z"/></clipPath></defs></svg>