<svg xmlns="http://www.w3.org/2000/svg" width="24" height="24" fill="none" stroke-width="1.5" color="currentColor"><path stroke="currentColor" stroke-linecap="round" stroke-linejoin="round" d="M16 22.03v-2.87a3.37 3.37 0 0 0-.94-2.61c3.14-.35 6.44-1.54 6.44-7A5.44 5.44 0 0 0 20 5.8a5.07 5.07 0 0 0-.09-3.77S18.73 1.68 16 3.5a13.38 13.38 0 0 0-7 0C6.27 1.68 5.09 2.03 5.09 2.03A5.07 5.07 0 0 0 5 5.8a5.44 5.44 0 0 0-1.5 3.78c0 5.42 3.3 6.6 6.44 7A3.37 3.37 0 0 0 9 19.16v2.87m0-2c-3 .97-5.5 0-7-3"/></svg>
