<svg xmlns="http://www.w3.org/2000/svg" width="353" height="353" fill="none"><g clip-path="url(#a)"><path stroke="#000" stroke-width="5" d="M23.947 23.947h305v305h-305z"/><path stroke="#000" stroke-width="5" d="M6.947 6.947h339v339h-339z"/><path fill="#000" d="M326.447 0h26.447v26.447h-26.447zM326.447 326.447h26.447v26.447h-26.447zM0 0h26.447v26.447H0zM0 326.447h26.447v26.447H0z"/><mask id="b" width="35" height="35" x="313" y="24" maskUnits="userSpaceOnUse" style="mask-type:alpha"><path fill="#000" fill-rule="evenodd" d="m330.549 24.468 16.887 16.886-16.887 16.887-16.886-16.887 16.886-16.886Zm0 7.07-9.815 9.816 9.815 9.816 9.816-9.816-9.816-9.815Z" clip-rule="evenodd"/></mask><g mask="url(#b)"><path fill="#000" d="M330.549 24.468h35.275V58.24h-35.275V24.468Z"/></g><mask id="c" width="35" height="35" x="313" y="58" maskUnits="userSpaceOnUse" style="mask-type:alpha"><path fill="#000" fill-rule="evenodd" d="m330.549 58.24 16.887 16.887-16.887 16.887-16.886-16.887 16.886-16.886Zm0 7.072-9.815 9.815 9.815 9.816 9.816-9.816-9.816-9.815Z" clip-rule="evenodd"/></mask><g mask="url(#c)"><path fill="#000" d="M330.549 58.24h35.275v33.774h-35.275V58.24Z"/></g><mask id="d" width="35" height="34" x="313" y="92" maskUnits="userSpaceOnUse" style="mask-type:alpha"><path fill="#000" fill-rule="evenodd" d="m330.549 92.014 16.887 16.886-16.887 16.887-16.886-16.887 16.886-16.886Zm0 7.071-9.815 9.815 9.815 9.816 9.816-9.816-9.816-9.815Z" clip-rule="evenodd"/></mask><g mask="url(#d)"><path fill="#000" d="M330.549 92.014h35.275v33.773h-35.275V92.014Z"/></g><mask id="e" width="35" height="35" x="313" y="125" maskUnits="userSpaceOnUse" style="mask-type:alpha"><path fill="#000" fill-rule="evenodd" d="m330.549 125.787 16.887 16.887-16.887 16.886-16.886-16.886 16.886-16.887Zm0 7.071-9.815 9.816 9.815 9.815 9.816-9.815-9.816-9.816Z" clip-rule="evenodd"/></mask><g mask="url(#e)"><path fill="#000" d="M330.549 125.787h35.275v33.773h-35.275v-33.773Z"/></g><mask id="f" width="35" height="35" x="313" y="159" maskUnits="userSpaceOnUse" style="mask-type:alpha"><path fill="#000" fill-rule="evenodd" d="m330.549 159.56 16.887 16.887-16.887 16.886-16.886-16.886 16.886-16.887Zm0 7.071-9.815 9.816 9.815 9.815 9.816-9.815-9.816-9.816Z" clip-rule="evenodd"/></mask><g mask="url(#f)"><path fill="#000" d="M330.549 159.56h35.275v33.773h-35.275V159.56Z"/></g><mask id="g" width="35" height="35" x="313" y="193" maskUnits="userSpaceOnUse" style="mask-type:alpha"><path fill="#000" fill-rule="evenodd" d="m330.549 193.333 16.887 16.887-16.887 16.886-16.886-16.886 16.886-16.887Zm0 7.071-9.815 9.816 9.815 9.815 9.816-9.815-9.816-9.816Z" clip-rule="evenodd"/></mask><g mask="url(#g)"><path fill="#000" d="M330.549 193.333h35.275v33.773h-35.275v-33.773Z"/></g><mask id="h" width="35" height="34" x="313" y="227" maskUnits="userSpaceOnUse" style="mask-type:alpha"><path fill="#000" fill-rule="evenodd" d="m330.549 227.106 16.887 16.887-16.887 16.886-16.886-16.886 16.886-16.887Zm0 7.071-9.815 9.816 9.815 9.815 9.816-9.815-9.816-9.816Z" clip-rule="evenodd"/></mask><g mask="url(#h)"><path fill="#000" d="M330.549 227.106h35.275v33.773h-35.275v-33.773Z"/></g><mask id="i" width="35" height="35" x="313" y="260" maskUnits="userSpaceOnUse" style="mask-type:alpha"><path fill="#000" fill-rule="evenodd" d="m330.549 260.879 16.887 16.887-16.887 16.886-16.886-16.886 16.886-16.887Zm0 7.071-9.815 9.816 9.815 9.815 9.816-9.815-9.816-9.816Z" clip-rule="evenodd"/></mask><g mask="url(#i)"><path fill="#000" d="M330.549 260.879h35.275v33.773h-35.275v-33.773Z"/></g><mask id="j" width="35" height="35" x="313" y="294" maskUnits="userSpaceOnUse" style="mask-type:alpha"><path fill="#000" fill-rule="evenodd" d="m330.549 294.652 16.887 16.887-16.887 16.886-16.886-16.886 16.886-16.887Zm0 7.071-9.815 9.816 9.815 9.815 9.816-9.815-9.816-9.816Z" clip-rule="evenodd"/></mask><g mask="url(#j)"><path fill="#000" d="M330.549 294.652h35.275v33.773h-35.275v-33.773Z"/></g><mask id="k" width="35" height="34" x="294" y="314" maskUnits="userSpaceOnUse" style="mask-type:alpha"><path fill="#000" fill-rule="evenodd" d="m328.064 330.911-16.887 16.886-16.886-16.886 16.886-16.886 16.887 16.886Zm-7.071 0-9.816-9.815-9.815 9.815 9.815 9.815 9.816-9.815Z" clip-rule="evenodd"/></mask><g mask="url(#k)"><path fill="#000" d="M328.064 330.911v35.275h-33.773v-35.275h33.773Z"/></g><mask id="l" width="35" height="34" x="260" y="314" maskUnits="userSpaceOnUse" style="mask-type:alpha"><path fill="#000" fill-rule="evenodd" d="m294.291 330.911-16.887 16.886-16.886-16.886 16.886-16.886 16.887 16.886Zm-7.072 0-9.815-9.815-9.815 9.815 9.815 9.815 9.815-9.815Z" clip-rule="evenodd"/></mask><g mask="url(#l)"><path fill="#000" d="M294.291 330.911v35.275h-33.774v-35.275h33.774Z"/></g><mask id="m" width="35" height="34" x="226" y="314" maskUnits="userSpaceOnUse" style="mask-type:alpha"><path fill="#000" fill-rule="evenodd" d="m260.518 330.911-16.887 16.886-16.886-16.886 16.886-16.886 16.887 16.886Zm-7.071 0-9.816-9.815-9.815 9.815 9.815 9.815 9.816-9.815Z" clip-rule="evenodd"/></mask><g mask="url(#m)"><path fill="#000" d="M260.518 330.911v35.275h-33.773v-35.275h33.773Z"/></g><mask id="n" width="35" height="34" x="192" y="314" maskUnits="userSpaceOnUse" style="mask-type:alpha"><path fill="#000" fill-rule="evenodd" d="m226.745 330.911-16.887 16.886-16.886-16.886 16.886-16.886 16.887 16.886Zm-7.071 0-9.816-9.815-9.815 9.815 9.815 9.815 9.816-9.815Z" clip-rule="evenodd"/></mask><g mask="url(#n)"><path fill="#000" d="M226.745 330.911v35.275h-33.773v-35.275h33.773Z"/></g><mask id="o" width="34" height="34" x="159" y="314" maskUnits="userSpaceOnUse" style="mask-type:alpha"><path fill="#000" fill-rule="evenodd" d="m192.971 330.911-16.886 16.886-16.887-16.886 16.887-16.886 16.886 16.886Zm-7.071 0-9.815-9.815-9.815 9.815 9.815 9.815 9.815-9.815Z" clip-rule="evenodd"/></mask><g mask="url(#o)"><path fill="#000" d="M192.971 330.911v35.275h-33.773v-35.275h33.773Z"/></g><mask id="p" width="35" height="34" x="125" y="314" maskUnits="userSpaceOnUse" style="mask-type:alpha"><path fill="#000" fill-rule="evenodd" d="m159.198 330.911-16.886 16.886-16.887-16.886 16.887-16.886 16.886 16.886Zm-7.071 0-9.815-9.815-9.816 9.815 9.816 9.815 9.815-9.815Z" clip-rule="evenodd"/></mask><g mask="url(#p)"><path fill="#000" d="M159.198 330.911v35.275h-33.773v-35.275h33.773Z"/></g><mask id="q" width="35" height="34" x="91" y="314" maskUnits="userSpaceOnUse" style="mask-type:alpha"><path fill="#000" fill-rule="evenodd" d="m125.425 330.911-16.886 16.886-16.887-16.886 16.887-16.886 16.886 16.886Zm-7.071 0-9.815-9.815-9.816 9.815 9.816 9.815 9.815-9.815Z" clip-rule="evenodd"/></mask><g mask="url(#q)"><path fill="#000" d="M125.425 330.911v35.275H91.652v-35.275h33.773Z"/></g><mask id="r" width="35" height="34" x="57" y="314" maskUnits="userSpaceOnUse" style="mask-type:alpha"><path fill="#000" fill-rule="evenodd" d="m91.652 330.911-16.886 16.886-16.887-16.886 16.887-16.886 16.886 16.886Zm-7.07 0-9.816-9.815-9.816 9.815 9.816 9.815 9.815-9.815Z" clip-rule="evenodd"/></mask><g mask="url(#r)"><path fill="#000" d="M91.652 330.911v35.275H57.88v-35.275h33.773Z"/></g><mask id="s" width="34" height="34" x="24" y="314" maskUnits="userSpaceOnUse" style="mask-type:alpha"><path fill="#000" fill-rule="evenodd" d="m57.88 330.911-16.887 16.886-16.887-16.886 16.887-16.886 16.886 16.886Zm-7.072 0-9.815-9.815-9.816 9.815 9.816 9.815 9.815-9.815Z" clip-rule="evenodd"/></mask><g mask="url(#s)"><path fill="#000" d="M57.88 330.911v35.275H24.105v-35.275H57.88Z"/></g><mask id="t" width="35" height="35" x="4" y="24" maskUnits="userSpaceOnUse" style="mask-type:alpha"><path fill="#000" fill-rule="evenodd" d="M21.62 24.468 4.734 41.354 21.62 58.241l16.887-16.887L21.62 24.468Zm0 7.07 9.816 9.816-9.816 9.816-9.815-9.816 9.815-9.815Z" clip-rule="evenodd"/></mask><g mask="url(#t)"><path fill="#000" d="M21.62 24.468h-35.274V58.24H21.62V24.468Z"/></g><mask id="u" width="35" height="35" x="4" y="58" maskUnits="userSpaceOnUse" style="mask-type:alpha"><path fill="#000" fill-rule="evenodd" d="M21.62 58.24 4.734 75.128 21.62 92.014l16.887-16.887L21.62 58.241Zm0 7.072 9.816 9.815-9.816 9.816-9.815-9.816 9.815-9.815Z" clip-rule="evenodd"/></mask><g mask="url(#u)"><path fill="#000" d="M21.62 58.24h-35.274v33.774H21.62V58.24Z"/></g><mask id="v" width="35" height="34" x="4" y="92" maskUnits="userSpaceOnUse" style="mask-type:alpha"><path fill="#000" fill-rule="evenodd" d="M21.62 92.014 4.734 108.9l16.886 16.887L38.507 108.9 21.62 92.014Zm0 7.071 9.816 9.815-9.816 9.816-9.815-9.816 9.815-9.815Z" clip-rule="evenodd"/></mask><g mask="url(#v)"><path fill="#000" d="M21.62 92.014h-35.274v33.773H21.62V92.014Z"/></g><mask id="w" width="35" height="35" x="4" y="125" maskUnits="userSpaceOnUse" style="mask-type:alpha"><path fill="#000" fill-rule="evenodd" d="M21.62 125.787 4.734 142.674 21.62 159.56l16.887-16.886-16.887-16.887Zm0 7.071 9.816 9.816-9.816 9.815-9.815-9.815 9.815-9.816Z" clip-rule="evenodd"/></mask><g mask="url(#w)"><path fill="#000" d="M21.62 125.787h-35.274v33.773H21.62v-33.773Z"/></g><mask id="x" width="35" height="35" x="4" y="159" maskUnits="userSpaceOnUse" style="mask-type:alpha"><path fill="#000" fill-rule="evenodd" d="M21.62 159.56 4.734 176.447l16.886 16.886 16.887-16.886L21.62 159.56Zm0 7.071 9.816 9.816-9.816 9.815-9.815-9.815 9.815-9.816Z" clip-rule="evenodd"/></mask><g mask="url(#x)"><path fill="#000" d="M21.62 159.56h-35.274v33.773H21.62V159.56Z"/></g><mask id="y" width="35" height="35" x="4" y="193" maskUnits="userSpaceOnUse" style="mask-type:alpha"><path fill="#000" fill-rule="evenodd" d="M21.62 193.333 4.734 210.22l16.886 16.886 16.887-16.886-16.887-16.887Zm0 7.071 9.816 9.816-9.816 9.815-9.815-9.815 9.815-9.816Z" clip-rule="evenodd"/></mask><g mask="url(#y)"><path fill="#000" d="M21.62 193.333h-35.274v33.773H21.62v-33.773Z"/></g><mask id="z" width="35" height="34" x="4" y="227" maskUnits="userSpaceOnUse" style="mask-type:alpha"><path fill="#000" fill-rule="evenodd" d="M21.62 227.106 4.734 243.993l16.886 16.886 16.887-16.886-16.887-16.887Zm0 7.071 9.816 9.816-9.816 9.815-9.815-9.815 9.815-9.816Z" clip-rule="evenodd"/></mask><g mask="url(#z)"><path fill="#000" d="M21.62 227.106h-35.274v33.773H21.62v-33.773Z"/></g><mask id="A" width="35" height="35" x="4" y="260" maskUnits="userSpaceOnUse" style="mask-type:alpha"><path fill="#000" fill-rule="evenodd" d="M21.62 260.879 4.734 277.766l16.886 16.886 16.887-16.886-16.887-16.887Zm0 7.071 9.816 9.816-9.816 9.815-9.815-9.815 9.815-9.816Z" clip-rule="evenodd"/></mask><g mask="url(#A)"><path fill="#000" d="M21.62 260.879h-35.274v33.773H21.62v-33.773Z"/></g><mask id="B" width="35" height="35" x="4" y="294" maskUnits="userSpaceOnUse" style="mask-type:alpha"><path fill="#000" fill-rule="evenodd" d="M21.62 294.652 4.734 311.539l16.886 16.886 16.887-16.886-16.887-16.887Zm0 7.071 9.816 9.816-9.816 9.815-9.815-9.815 9.815-9.816Z" clip-rule="evenodd"/></mask><g mask="url(#B)"><path fill="#000" d="M21.62 294.652h-35.274v33.773H21.62v-33.773Z"/></g><mask id="C" width="35" height="34" x="294" y="5" maskUnits="userSpaceOnUse" style="mask-type:alpha"><path fill="#000" fill-rule="evenodd" d="M328.064 21.982 311.177 5.096l-16.886 16.886 16.886 16.886 16.887-16.886Zm-7.071 0-9.816 9.816-9.815-9.816 9.815-9.815 9.816 9.815Z" clip-rule="evenodd"/></mask><g mask="url(#C)"><path fill="#000" d="M328.064 21.982v-35.275h-33.773v35.275h33.773Z"/></g><mask id="D" width="35" height="34" x="260" y="5" maskUnits="userSpaceOnUse" style="mask-type:alpha"><path fill="#000" fill-rule="evenodd" d="M294.291 21.982 277.404 5.096l-16.886 16.886 16.886 16.886 16.887-16.886Zm-7.072 0-9.815 9.816-9.815-9.816 9.815-9.815 9.815 9.815Z" clip-rule="evenodd"/></mask><g mask="url(#D)"><path fill="#000" d="M294.291 21.982v-35.275h-33.774v35.275h33.774Z"/></g><mask id="E" width="35" height="34" x="226" y="5" maskUnits="userSpaceOnUse" style="mask-type:alpha"><path fill="#000" fill-rule="evenodd" d="M260.518 21.982 243.631 5.096l-16.886 16.886 16.886 16.886 16.887-16.886Zm-7.071 0-9.816 9.816-9.815-9.816 9.815-9.815 9.816 9.815Z" clip-rule="evenodd"/></mask><g mask="url(#E)"><path fill="#000" d="M260.518 21.982v-35.275h-33.773v35.275h33.773Z"/></g><mask id="F" width="35" height="34" x="192" y="5" maskUnits="userSpaceOnUse" style="mask-type:alpha"><path fill="#000" fill-rule="evenodd" d="M226.745 21.982 209.858 5.096l-16.886 16.886 16.886 16.886 16.887-16.886Zm-7.071 0-9.816 9.816-9.815-9.816 9.815-9.815 9.816 9.815Z" clip-rule="evenodd"/></mask><g mask="url(#F)"><path fill="#000" d="M226.745 21.982v-35.275h-33.773v35.275h33.773Z"/></g><mask id="G" width="34" height="34" x="159" y="5" maskUnits="userSpaceOnUse" style="mask-type:alpha"><path fill="#000" fill-rule="evenodd" d="M192.971 21.982 176.085 5.096l-16.887 16.886 16.887 16.886 16.886-16.886Zm-7.071 0-9.815 9.816-9.815-9.816 9.815-9.815 9.815 9.815Z" clip-rule="evenodd"/></mask><g mask="url(#G)"><path fill="#000" d="M192.971 21.982v-35.275h-33.773v35.275h33.773Z"/></g><mask id="H" width="35" height="34" x="125" y="5" maskUnits="userSpaceOnUse" style="mask-type:alpha"><path fill="#000" fill-rule="evenodd" d="M159.198 21.982 142.312 5.096l-16.887 16.886 16.887 16.886 16.886-16.886Zm-7.071 0-9.815 9.816-9.816-9.816 9.816-9.815 9.815 9.815Z" clip-rule="evenodd"/></mask><g mask="url(#H)"><path fill="#000" d="M159.198 21.982v-35.275h-33.773v35.275h33.773Z"/></g><mask id="I" width="35" height="34" x="91" y="5" maskUnits="userSpaceOnUse" style="mask-type:alpha"><path fill="#000" fill-rule="evenodd" d="M125.425 21.982 108.539 5.096 91.652 21.982l16.887 16.886 16.886-16.886Zm-7.071 0-9.815 9.816-9.816-9.816 9.816-9.815 9.815 9.815Z" clip-rule="evenodd"/></mask><g mask="url(#I)"><path fill="#000" d="M125.425 21.982v-35.275H91.652v35.275h33.773Z"/></g><mask id="J" width="35" height="34" x="57" y="5" maskUnits="userSpaceOnUse" style="mask-type:alpha"><path fill="#000" fill-rule="evenodd" d="M91.652 21.982 74.766 5.096 57.879 21.982l16.887 16.886 16.886-16.886Zm-7.07 0-9.816 9.816-9.816-9.816 9.816-9.815 9.815 9.815Z" clip-rule="evenodd"/></mask><g mask="url(#J)"><path fill="#000" d="M91.652 21.982v-35.275H57.88v35.275h33.773Z"/></g><mask id="K" width="34" height="34" x="24" y="5" maskUnits="userSpaceOnUse" style="mask-type:alpha"><path fill="#000" fill-rule="evenodd" d="M57.88 21.982 40.992 5.096 24.106 21.982l16.887 16.886 16.886-16.886Zm-7.072 0-9.815 9.816-9.816-9.816 9.816-9.815 9.815 9.815Z" clip-rule="evenodd"/></mask><g mask="url(#K)"><path fill="#000" d="M57.88 21.982v-35.275H24.105v35.275H57.88Z"/></g></g><defs><clipPath id="a"><path fill="#fff" d="M0 0h353v353H0z"/></clipPath></defs></svg>