<svg xmlns="http://www.w3.org/2000/svg" width="0" height="0" fill="none"><clipPath id="oldpaper" clipPathUnits="objectBoundingBox"><path fill="#000" d="m0.028,0.491,0.004,-0.01,-0.02,-0.024 c-0.001,-0.011,-0.001,-0.033,0.002,-0.037 c0.003,-0.003,0.006,-0.027,0.008,-0.039 c-0.004,-0.002,-0.012,-0.007,-0.012,-0.017 c0,-0.01,0.019,-0.033,0.028,-0.044 c-0.001,-0.002,-0.003,-0.006,-0.003,-0.01 c0,-0.004,0.009,-0.011,0.014,-0.014 c-0.003,-0.003,-0.009,-0.011,-0.014,-0.016 c-0.005,-0.005,-0.02,-0.012,-0.027,-0.015 l0.004,-0.033 c0,-0.005,0.001,-0.018,0.009,-0.029 c0.008,-0.011,0.005,-0.012,0.003,-0.011 l-0.003,-0.007 c0.001,-0.002,0.004,-0.007,0.004,-0.01 c0,-0.003,-0.001,-0.007,-0.002,-0.008 l-0.006,-0.008 c0.001,-0.003,0.002,-0.01,0,-0.012 C0.015,0.146,0.005,0.135,0,0.129 c0.003,-0.002,0.009,-0.005,0.005,-0.008 c-0.004,-0.002,-0.002,-0.008,0,-0.01 c0.004,-0.015,0.013,-0.047,0.015,-0.054 c0.002,-0.007,-0.006,-0.013,-0.01,-0.016 c0.003,-0.003,0.01,-0.01,0.01,-0.015 c0,-0.006,-0.005,-0.013,-0.008,-0.016 l0.017,-0.004 c0,0.002,0.005,0.008,0.03,0.013 c0.025,0.005,0.037,-0.005,0.041,-0.01 l0.037,0.003 c0.012,0.001,0.03,0,0.038,-0.001 c0.007,0,0.022,0.001,0.029,0.002 c0.007,0.001,0.015,-0.002,0.018,-0.004 c0.013,-0.001,0.04,-0.003,0.04,0 c0,0.003,0.035,0.004,0.044,0.003 c0.007,-0.001,0.009,-0.004,0.01,-0.006 h0.014 c0.003,0,0.013,0.001,0.02,0 c0.007,-0.001,0.014,0,0.022,0.003 c0.009,0.003,0.071,0.005,0.077,0.003 c0.007,-0.002,0.015,-0.007,0.042,-0.004 c0.027,0.003,0.022,-0.005,0.033,0 c0.011,0.005,0.028,0,0.039,-0.003 c0.009,-0.002,0.013,-0.002,0.014,-0.002 c0.038,0.005,0.116,0.016,0.122,0.017 c0.009,0.001,0.015,-0.007,0.017,-0.009 c0.001,-0.002,0.02,-0.001,0.024,0 c0.005,0.001,0.016,-0.006,0.02,-0.006 c0.003,0,0.016,-0.002,0.025,0.002 a0.419,0.314,0,0,0,0.019,0.006 c0.011,-0.003,0.033,-0.008,0.035,-0.008 c0.003,0,0.007,0.001,0.009,0.002 l0.009,-0.002 c0.007,-0.001,0.021,-0.003,0.029,-0.004 c0.007,-0.001,0.011,0.008,0.012,0.013 l0.043,0.074 c0.004,0.01,0.017,0.035,0.031,0.052 c0.015,0.017,0.017,0.027,0.016,0.03 c0,0.017,0.001,0.053,0,0.061 c-0.001,0.008,0.005,0.023,0.008,0.03 c0.001,0.007,0.003,0.023,0,0.03 c-0.003,0.007,-0.006,0.029,-0.007,0.039 l-0.002,0.057,0.008,0.047 c-0.031,0.036,-0.014,0.071,-0.004,0.102 c-0.025,0.026,-0.014,0.048,-0.006,0.056 l-0.004,0.042 c0.001,0.007,-0.002,0.024,-0.016,0.039 c-0.014,0.014,-0.001,0.029,0.007,0.035 c0.004,0.007,0.01,0.024,0.006,0.029 a0.061,0.045,0,0,0,-0.006,0.013 l-0.036,0.025 c0.006,-0.002,-0.002,0.008,0.017,0.015 c-0.001,0.016,0.016,0.025,0.025,0.027 c-0.002,0.002,-0.006,0.009,-0.011,0.024 c-0.004,0.015,0.004,0.024,0.009,0.027 c0,0.004,-0.003,0.011,-0.009,0.013 c-0.006,0.002,-0.008,0.01,-0.009,0.014 l0.002,0.035,-0.003,0.007,-0.046,0.023 c-0.013,0.001,-0.049,0.008,-0.094,0.024 c-0.045,0.016,-0.128,0.02,-0.164,0.02 l-0.022,-0.003 h-0.039 c-0.003,-0.001,-0.015,-0.003,-0.046,-0.007 c-0.038,-0.005,-0.062,0.002,-0.072,0.004 l0,0 c-0.009,0.003,-0.04,0.004,-0.046,0.001 c-0.006,-0.003,-0.03,-0.004,-0.04,-0.001 c-0.008,0.002,-0.033,0.001,-0.044,0 c-0.008,-0.001,-0.024,-0.003,-0.028,-0.003 c-0.004,0,-0.013,0.002,-0.018,0.003 l-0.012,-0.003,-0.046,-0.004,-0.02,0.004,-0.044,-0.001 c-0.017,-0.001,-0.058,-0.002,-0.083,-0.003 c-0.025,-0.001,-0.043,0.003,-0.048,0.005 l-0.022,-0.003,-0.009,-0.012,0.003,-0.042 c0,-0.005,0.002,-0.015,0.006,-0.02 c0.004,-0.005,-0.001,-0.013,-0.003,-0.016 l0.009,-0.007,-0.009,-0.031,0.011,-0.012 c0.001,-0.008,0.004,-0.026,0.007,-0.038 c0.002,-0.011,-0.008,-0.022,-0.013,-0.026 c-0.001,-0.004,-0.002,-0.014,0,-0.026 s-0.01,-0.031,-0.016,-0.038 c0.002,-0.006,0.007,-0.019,0.01,-0.024 c0.004,-0.006,0.003,-0.022,0.004,-0.024 c0.001,-0.003,0.01,-0.011,0.02,-0.015 c0.008,-0.003,0.019,-0.02,0.024,-0.028 c-0.009,-0.006,-0.028,-0.018,-0.03,-0.02 c-0.003,-0.002,-0.009,-0.021,-0.011,-0.028 c-0.002,-0.005,-0.001,-0.038,0,-0.054 v-0.037"/></clipPath></svg>
