<svg xmlns="http://www.w3.org/2000/svg" fill="none" viewBox="0 0 100 100"><g clip-path="url(#a)"><path fill="#fff" d="M70.5 90h-41A19.5 19.5 0 0 1 10 70.5v-41C10 18.8 18.8 10 29.5 10h41C81.2 10 90 18.8 90 29.5v41C90 81.2 81.2 90 70.5 90Z"/><path fill="#000" d="M71.9 20.7H50.2c-.2 0-.4.2-.4.4V28c0 .2.2.4.4.4h3c1.2 0 2.2 1 2.3 2.1v33.6l-.1.4v.2l-.2.4a5 5 0 0 1-1.9 2.6 6.9 6.9 0 0 1-4.6 1c-2.4-.2-4.7-1.2-6.6-3a9.7 9.7 0 0 1-3.2-5.9 5.3 5.3 0 0 1 1.6-4.7l.1-.1a6 6 0 0 1 3.4-1.3h1.7a10.7 10.7 0 0 1 3.7 1c.4.2.5 0 .5-.1V44.2c0-.3-.2-.6-.5-.6a18 18 0 0 0-16.5 4 15.6 15.6 0 0 0-5 13.4 20 20 0 0 0 6.7 12.4 22.8 22.8 0 0 0 15 5.9c4.6 0 8.9-1.6 12-4.4 3-2.7 4.8-6.5 5-10.5V30.7c0-1.3 1.1-2.3 2.4-2.3h3c.2 0 .4-.2.4-.4v-7c0-.1-.2-.3-.4-.3Z"/></g><defs><clipPath id="a"><path fill="#fff" d="M10 10h80v80H10z"/></clipPath></defs></svg>