<svg xmlns="http://www.w3.org/2000/svg" fill="none" viewBox="0 0 100 100"><g clip-path="url(#a)"><path fill="#fff" d="m40.4 11.2.9 3.6c-3.5.9-7 2.3-10 4.2l-2-3.3c3.5-2 7.2-3.6 11.1-4.5Zm19.2 0-.9 3.6c3.5.9 7 2.3 10 4.2l2-3.3c-3.5-2-7.2-3.6-11.1-4.5ZM15.7 29.3c-2 3.5-3.6 7.2-4.5 11.1l3.6.9c.9-3.5 2.3-7 4.2-10l-3.3-2Zm-2 20.7c0-1.8.2-3.6.5-5.4l-3.8-.6c-.5 4-.5 8 0 12l3.8-.6c-.3-1.8-.5-3.6-.4-5.4Zm57 34.2-2-3.2a36.2 36.2 0 0 1-10 4.2l1 3.6c3.8-1 7.5-2.5 11-4.6ZM86.2 50c0 1.8 0 3.6-.4 5.4l3.8.6c.6-4 .6-8 0-12l-3.8.6c.3 1.8.5 3.6.5 5.4Zm2.6 9.6-3.6-.9c-.9 3.5-2.3 7-4.2 10l3.3 2c2-3.5 3.6-7.2 4.5-11.1ZM55.4 85.8c-3.6.6-7.2.6-10.8 0l-.6 3.8c4 .6 8 .6 12 0l-.6-3.8Zm23.8-14.3c-2.2 3-4.8 5.5-7.7 7.7l2.2 3a40 40 0 0 0 8.5-8.5l-3-2.2Zm-7.7-50.7c3 2.2 5.5 4.8 7.7 7.7l3-2.3a40 40 0 0 0-8.5-8.4l-2.2 3Zm-50.7 7.7c2.2-3 4.8-5.5 7.7-7.7l-2.3-3a40 40 0 0 0-8.4 8.4l3 2.3Zm63.5.8-3.3 2c2 3 3.3 6.4 4.2 10l3.6-1c-1-3.8-2.5-7.5-4.5-11ZM44.5 14.2c3.6-.6 7.2-.6 10.8 0l.6-3.8c-4-.5-8-.5-12 0l.6 3.8Zm-21.9 69L15 85l1.8-7.7-3.6-1-1.8 7.8a3.7 3.7 0 0 0 4.5 4.5l7.7-1.7-.9-3.7ZM14 73l3.7.8 1.2-5.4a36 36 0 0 1-4-9.8l-3.6.9c.8 3.3 2 6.5 3.7 9.5l-1 4Zm17.5 8-5.3 1.3.8 3.7 4-1c3 1.7 6.2 3 9.5 3.7l.9-3.6a36 36 0 0 1-9.8-4ZM50 17.6a32.5 32.5 0 0 0-27.5 49.8l-3.1 13.3 13.3-3.1a32.5 32.5 0 1 0 17.3-60Z"/></g><defs><clipPath id="a"><path fill="#fff" d="M10 10h80v80H10z"/></clipPath></defs></svg>