<svg xmlns="http://www.w3.org/2000/svg" fill="none" viewBox="0 0 100 100"><path fill="#fff" d="M46.6 45.3c-5.7-1.5-11-4.5-15.3-8.7A35.1 35.1 0 0 1 16 45.3 24.9 24.9 0 0 0 31 73a24.8 24.8 0 0 0 15.6-27.6ZM30.2 63.6l-9.5-9.4 3-3 6.5 6.6 10.2-10.2 3 2.9-13.2 13.1Zm16.4-18.3c-5.7-1.5-11-4.5-15.3-8.7A35.1 35.1 0 0 1 16 45.3 24.9 24.9 0 0 0 31 73a24.8 24.8 0 0 0 15.6-27.6ZM30.2 63.6l-9.5-9.4 3-3 6.5 6.6 10.2-10.2 3 2.9-13.2 13.1Zm1.1-27A35.1 35.1 0 0 1 16 45.3 24.9 24.9 0 0 0 31 73a24.8 24.8 0 0 0 15.6-27.6c-5.7-1.5-11-4.5-15.3-8.7Zm-1.1 27-9.5-9.4 3-3 6.5 6.6 10.2-10.2 3 2.9-13.2 13.1Zm16.4-18.3c-5.7-1.5-11-4.5-15.3-8.7A35.1 35.1 0 0 1 16 45.3 24.9 24.9 0 0 0 31 73a24.8 24.8 0 0 0 15.6-27.6ZM30.2 63.6l-9.5-9.4 3-3 6.5 6.6 10.2-10.2 3 2.9-13.2 13.1Zm16.4-18.3c-5.7-1.5-11-4.5-15.3-8.7A35.1 35.1 0 0 1 16 45.3 24.9 24.9 0 0 0 31 73a24.8 24.8 0 0 0 15.6-27.6ZM30.2 63.6l-9.5-9.4 3-3 6.5 6.6 10.2-10.2 3 2.9-13.2 13.1Z"/><path fill="#fff" d="M90.3 22.5a6.5 6.5 0 0 0-5-3h-48a6.3 6.3 0 0 0-5 3c-.7 1-1 2.2-1 3.4v2.5l-.8.8-.1.1a41 41 0 0 1-19.6 11.3l-.9.2-.1.9-.2.8a33.6 33.6 0 0 0 20.8 37.6l.5.1.5-.1 1.8-.8a33.5 33.5 0 0 0 16-14.2h35.6a6.3 6.3 0 0 0 5.5-3c.6-1 1-2.2 1-3.3v-33c0-1.1-.4-2.3-1-3.3Zm-53 0h48.4v.1L62.2 43.3a1.5 1.5 0 0 1-2 0L36.9 22.6h.5Zm-3 3.4c0-.5.1-.9.3-1.3l20 17.7-1.4 1.3a28.3 28.3 0 0 0-.3-2l-.2-.8-.8-.2-.6-.1a42.7 42.7 0 0 1-17-9.2v-5.4ZM31 77.4A31 31 0 0 1 12.2 43a45 45 0 0 0 19.2-10.9c5.3 5.2 11.8 9 19 10.9a30.9 30.9 0 0 1-19.5 34.4ZM50.7 62a33.3 33.3 0 0 0 2.8-14.8l3.4-3 3.4 3a1.5 1.5 0 0 0 2 0l3.3-3 20 17.7H50.8Zm37.5-3.3-.3 1.2-20-17.7 20-17.7c.2.4.3.8.3 1.3v32.9Z"/></svg>