<svg xmlns="http://www.w3.org/2000/svg" fill="none" viewBox="0 0 100 100"><path fill="#fff" d="m82.1 30 2 6c.2.3.2.7.1 1v.3l-.3 1a23533 23533 0 0 0-7.2 27.3c-1.7 7-3.1 9.4-7.6 12.6A594.8 594.8 0 0 1 54.7 88l-.6.4-1.9 1.1c-.8.4-1.5.6-2.2.6-.7 0-1.4-.2-2.2-.6l-2-1.1-.5-.4-.6-.4L31 78.2c-4.5-3.2-5.9-5.6-7.6-12.6A3097.8 3097.8 0 0 0 16 38.2l-.2-.9-.1-.3v-1l2-6-1.5-3.8c-.2-.6 0-1.3.4-1.7a145.9 145.9 0 0 1 5-5.3 7.5 7.5 0 0 1 4.6-2 15.3 15.3 0 0 1 4.7.2l6-6.9c.3-.4.8-.6 1.3-.6h23.4c.5 0 1 .2 1.3.6l6 6.9h.3c1.4-.3 3-.4 4.4-.2 1.8.2 3.4.8 4.6 2a238.7 238.7 0 0 1 5 5.2c.5.5.6 1.2.4 1.8L82 30.1Zm-3.3.6v-1.2l1.4-3.4a227 227 0 0 0-4.3-4.5c-.6-.6-1.5-1-2.6-1a12.2 12.2 0 0 0-4.4.3c-.6.2-1.3 0-1.7-.5l-6.2-7H39l-6.2 7c-.4.5-1 .7-1.7.5a6.8 6.8 0 0 0-1-.2c-1.1-.2-2.3-.3-3.4-.2-1.1.2-2 .5-2.6 1.1a234.6 234.6 0 0 0-4.3 4.5l1.4 3.4v1.2l-2.1 6 .2.8.8 3.3a24392.7 24392.7 0 0 1 6.4 24.1c1.5 6.3 2.6 8 6.3 10.7a597.5 597.5 0 0 0 14.3 9.7l.6.4 1.5 1 .8.2.8-.3 1.5-.9.6-.4.6-.4c1.6-1 9.8-6.5 13.7-9.3 3.7-2.7 4.8-4.4 6.3-10.7A3082 3082 0 0 1 80 40.7l.8-3.3.2-.8-2.1-6ZM66.6 24s8.6 10.5 8.6 12.7c0 2.2-1.1 2.8-2.2 4l-6.5 6.9c-.6.6-1.8 1.6-1 3.4.7 1.8 1.8 4 .5 6.3-1.2 2.3-3.3 3.8-4.6 3.6-1.4-.3-4.5-2-5.7-2.7-1.2-.7-4.9-3.8-4.9-5 0-1.1 3.9-3.2 4.6-3.7.7-.5 3.9-2.3 4-3 0-.8 0-1-1-2.8-1-1.8-2.6-4.1-2.3-5.7.2-1.6 3-2.4 5-3.2l6.2-2.4c.4-.2.3-.4-1.1-.5-1.4-.2-5.5-.7-7.3-.2-1.9.5-5 1.3-5.2 1.7-.3.4-.5.5-.3 1.9l1.8 9.5c.1 1.2.4 2-1 2.3-1.2.3-3.4.8-4.2.8-.8 0-3-.5-4.3-.8-1.3-.3-1-1.1-.9-2.3l1.8-9.5c.2-1.4 0-1.5-.3-1.9-.2-.4-3.3-1.2-5.2-1.7-1.8-.5-5.9 0-7.3.2-1.4.1-1.5.3-1 .5.4.3 4.2 1.7 6.1 2.4 2 .8 4.8 1.6 5 3.2.3 1.6-1.4 4-2.3 5.7-1 1.8-1 2-1 2.8.1.7 3.3 2.5 4 3 .7.5 4.6 2.6 4.6 3.7 0 1.2-3.7 4.3-4.9 5-1.2.8-4.3 2.4-5.7 2.7-1.3.2-3.4-1.3-4.6-3.6-1.3-2.3-.2-4.5.6-6.3.7-1.8-.5-2.8-1.1-3.4l-6.5-7c-1-1-2.2-1.7-2.2-3.9S33.4 24 33.4 24s7.3 1.4 8.3 1.4c1 0 3-.8 5-1.4 2-.7 3.3-.7 3.3-.7s1.3 0 3.3.7c2 .6 4 1.4 5 1.4s8.3-1.4 8.3-1.4ZM60 64c.5.3.2 1-.3 1.3l-7.6 6c-.6.5-1.6 1.4-2.2 1.4-.6 0-1.6-.9-2.2-1.4a396 396 0 0 0-7.6-6c-.5-.4-.8-1-.3-1.3.5-.4 2.2-1.2 4.5-2.4a26 26 0 0 1 5.6-2.2c.4 0 3.3 1 5.6 2.2 2.3 1.2 4 2 4.5 2.4Z"/></svg>