<svg xmlns="http://www.w3.org/2000/svg" fill="none" viewBox="0 0 100 100"><g clip-path="url(#a)"><mask id="b" fill="#fff"><path fill-rule="evenodd" d="m51.49 15.94 1.49 4.53 6.4-5.67 20.22 3.66L90 44.4 80.3 54 90 72.17 60.17 90 33.2 80.63l-1.54-9.1-14-.27L10 25.43 23.6 10l27.89 5.94Z" clip-rule="evenodd"/></mask><path fill="#183234" d="m52.98 20.47-2.85.94 1.43 4.33 3.41-3.02-1.99-2.25Zm-1.5-4.53 2.85-.94-.53-1.63-1.7-.37-.62 2.93Zm7.9-1.14.53-2.95-1.44-.26-1.09.97 2 2.24Zm20.22 3.66 2.78-1.12-.61-1.54-1.64-.3-.53 2.96ZM90 44.4l2.11 2.13 1.42-1.4-.75-1.85L90 44.4ZM80.3 54l-2.11-2.13-1.6 1.57 1.06 1.97L80.3 54ZM90 72.17l1.54 2.58 2.45-1.47-1.34-2.52L90 72.17ZM60.17 90l-.98 2.83 1.32.46 1.2-.72L60.17 90ZM33.2 80.63l-2.96.5.3 1.75 1.68.58.98-2.83Zm-1.54-9.1 2.95-.5-.41-2.44-2.48-.05-.06 3Zm-14-.27-2.96.5.4 2.45 2.5.05.06-3ZM10 25.43l-2.25-1.99-.94 1.08.23 1.4 2.96-.5ZM23.6 10l.63-2.93-1.72-.37-1.16 1.32L23.6 10Zm32.23 9.53L54.33 15l-5.7 1.88 1.5 4.53 5.7-1.88Zm1.55-6.97-6.4 5.67 4 4.49 6.38-5.68-3.98-4.48Zm22.75 2.94-20.22-3.65-1.07 5.9 20.23 3.66 1.06-5.9Zm12.65 27.78-10.4-25.94-5.56 2.23 10.4 25.95 5.56-2.24ZM82.41 56.13l9.7-9.6-4.22-4.26-9.7 9.6 4.22 4.26Zm10.24 14.63-9.7-18.17-5.3 2.82 9.7 18.17 5.3-2.82ZM61.7 92.57l29.83-17.82-3.08-5.15-29.83 17.82 3.08 5.16Zm-29.5-9.1 26.98 9.36 1.97-5.66-26.98-9.38-1.96 5.67Zm-3.5-11.44 1.54 9.1 5.92-1.01-1.55-9.1-5.91 1Zm-11.1 2.22 14 .28.12-6-14-.28-.12 6ZM7.04 25.92l7.66 45.83 5.92-.99-7.66-45.83-5.92 1Zm14.3-17.9L7.76 23.44l4.5 3.97 13.6-15.43-4.5-3.96ZM52.12 13 24.23 7.07l-1.26 5.86 27.89 5.95L52.11 13Z" mask="url(#b)"/><path fill="#183234" fill-rule="evenodd" d="M25.31 25.31H74.7V74.7H25.3V25.3ZM30 65.43h18.51v3.08H30v-3.08Zm-.23-33.72h8.34c4.92 0 7.89 2.86 7.89 7.09v.11c0 4.8-3.66 7.2-8.34 7.2h-3.43v6.18h-4.46V31.7ZM37.9 42c2.28 0 3.54-1.37 3.54-3.09v-.11c0-2.06-1.37-3.09-3.66-3.09h-3.43V42h3.55Zm11.88 4.11-2.63 3.2a14.08 14.08 0 0 0 8.69 3.43c4.46 0 7.54-2.28 7.54-6.4v-.11c0-3.54-2.4-5.03-6.51-6.17-3.55-.92-4.46-1.37-4.46-2.75v-.11c0-1.03.91-1.83 2.63-1.83 1.71 0 3.54.8 5.37 2.06L62.8 34a11.74 11.74 0 0 0-7.66-2.63c-4.23 0-7.2 2.4-7.2 6.17v.12c0 4.11 2.75 5.25 6.86 6.28 3.43.92 4.11 1.49 4.11 2.63v.12c0 1.25-1.14 1.94-2.97 1.94-2.4 0-4.34-1.03-6.17-2.52Z" clip-rule="evenodd"/></g><defs><clipPath id="a"><path fill="#fff" d="M10 10h80v80H10z"/></clipPath></defs></svg>