<svg xmlns="http://www.w3.org/2000/svg" fill="none" viewBox="0 0 100 100"><g clip-path="url(#a)"><path fill="#183234" d="m88.5 46.4-35-34.9a5.1 5.1 0 0 0-7.2 0L39 18.8l9.2 9.2a6 6 0 0 1 8 4.4c.2 1.1.2 2.3-.2 3.4l8.8 8.8a6.1 6.1 0 0 1 4.4 11.5 6.1 6.1 0 0 1-8-8l-8.3-8.3v21.8a6.3 6.3 0 0 1 3 3.1 6.1 6.1 0 1 1-8-3.3v-22a6 6 0 0 1-3.7-4.5 6 6 0 0 1 .3-3.5l-9-9-24 23.9a5.2 5.2 0 0 0 0 7.2l35 35a5.2 5.2 0 0 0 7.2 0l34.8-34.8a5.1 5.1 0 0 0 0-7.2"/></g><defs><clipPath id="a"><path fill="#183234" d="M10 10h80v80H10z"/></clipPath></defs></svg>