<svg xmlns="http://www.w3.org/2000/svg" fill="none" viewBox="0 0 100 100"><path fill="#183234" fill-rule="evenodd" d="M63.3 39.1A10.8 10.8 0 0 0 52.4 50a11 11 0 0 0 10.9 10.9A10.8 10.8 0 0 0 74 50a11 11 0 0 0-10.8-10.9Zm-11.1-.3A15.6 15.6 0 0 1 78.9 50a15.8 15.8 0 0 1-15.7 15.8A15.6 15.6 0 0 1 47.6 50c0-4.2 1.6-8.2 4.6-11.2Z" clip-rule="evenodd"/><path fill="#183234" fill-rule="evenodd" d="M36.8 65.8a10.8 10.8 0 0 0-10.9 10.9 11 11 0 0 0 10.9 10.8 10.8 10.8 0 0 0 10.8-10.8v-11H36.7Zm-11.1-.3c2.9-3 6.9-4.6 11-4.6h15.7v15.8a15.8 15.8 0 0 1-15.6 15.8A15.6 15.6 0 0 1 21 76.7c0-4.2 1.6-8.2 4.6-11.2Zm21.9-58h15.6A15.6 15.6 0 0 1 79 23.3a15.8 15.8 0 0 1-15.7 15.8H47.6V7.5Zm4.8 5v21.7h10.9A10.8 10.8 0 0 0 74 23.3a11 11 0 0 0-10.8-10.8H52.4Z" clip-rule="evenodd"/><path fill="#183234" fill-rule="evenodd" d="M25.7 12.2c2.9-3 6.9-4.7 11-4.7h15.7v31.6H36.8A15.6 15.6 0 0 1 21 23.3c0-4.2 1.6-8.2 4.6-11.1Zm11 .3A10.8 10.8 0 0 0 26 23.3a11 11 0 0 0 10.9 11h10.8V12.4h-11Z" clip-rule="evenodd"/><path fill="#183234" fill-rule="evenodd" d="M25.7 38.8c2.9-3 6.9-4.6 11-4.6h15.7v31.6H36.8A15.6 15.6 0 0 1 21 50c0-4.2 1.6-8.2 4.6-11.2Zm11 .3A10.8 10.8 0 0 0 26 50a11 11 0 0 0 10.9 10.9h10.8V39h-11Z" clip-rule="evenodd"/></svg>