<svg xmlns="http://www.w3.org/2000/svg" viewBox="0 0 119 26" fill="none"><path fill="currentColor" d="m27.81.67.7 1.56.12.36.08.27-3.6-.08c-.87-.03-1.33.07-1.37.3-.04.24.04.54.23.9.2.38.38.85.57 1.43a30 30 0 0 1 .44 1.46l.26.86.19.4.17.24a1.36 1.36 0 0 0 .9.4l.91.01c.37 0 .48-.26.33-.77-.07-.27-.16-.43-.27-.49-.1-.06-.4-.09-.92-.1l-.56-2a57.89 57.89 0 0 1 3.74.03c.53 1.46.82 2.39.87 2.79.05.4.16.92.32 1.57.17.65.02 1.04-.43 1.17-.44.12-1.46.19-3.05.19H24.6c-.24 0-.47-.03-.7-.1a1.24 1.24 0 0 1-.6-.35c-.15-.18-.3-.4-.42-.67-.13-.26-.26-.7-.4-1.3a38.57 38.57 0 0 0-2.06-6.52 2.45 2.45 0 0 1-.15-.5c-.04-.2.06-.44.3-.72.23-.28.58-.43 1.04-.45h2.2c1.01.02 2.35.05 4.01.11Zm7.47 7.66c0 .04.03.12.08.25.05.14.12.26.2.37.1.12.25.17.43.17s.53 0 1.05.02h.95a.32.32 0 0 0 .27-.18c.07-.1.1-.23.12-.37.01-.14-.01-.36-.08-.67a36.64 36.64 0 0 0-1.2-4.26 3.18 3.18 0 0 0-.5-1.05.78.78 0 0 0-.56-.26 20.28 20.28 0 0 0-1.88 0c-.16.01-.26.06-.3.16a.54.54 0 0 0-.02.38l.36 1.15a27.6 27.6 0 0 1 1.08 4.3ZM32.55 9.9c-.17-1.42-.3-2.37-.4-2.84a21.56 21.56 0 0 0-1.13-3.92 26.3 26.3 0 0 1-.62-1.8c-.06-.25 0-.45.18-.6.18-.15.5-.24.93-.25.45-.02 1.3-.02 2.57-.02 1.27 0 2.22 0 2.84.02a2.8 2.8 0 0 1 1.5.4c.39.25.75.8 1.09 1.65a29.97 29.97 0 0 1 1.53 5c.14.66.25 1.23.32 1.71.08.5.07.85-.02 1.07-.09.21-.24.4-.45.58-.22.16-.5.25-.83.27-.33.01-1.25.01-2.74 0-1.5-.02-2.5-.02-3.03-.02-.51 0-.9-.09-1.13-.27a1.5 1.5 0 0 1-.6-.98Zm14.43 1.2a80.52 80.52 0 0 0-.33-3.12c-.08-.56-.2-1.16-.37-1.8a51.2 51.2 0 0 0-1.16-3.86L44.48.57l2.17-.04c2.48.03 3.92.12 4.34.27.4.14.72.36.92.65a3.87 3.87 0 0 1 .7 2.07c.05.44-.08.82-.39 1.14.36.18.64.38.84.58.2.2.38.46.53.77a11.76 11.76 0 0 1 .81 2.63c.1.55.13.97.08 1.25-.05.27-.19.54-.41.8-.23.27-.48.42-.76.45-.28.03-1.06.04-2.35.04H47.1l-.11-.08Zm1.27-7.06c.84.03 1.34 0 1.5-.08.17-.09.3-.2.42-.36.12-.16.16-.33.12-.52a.83.83 0 0 0-.25-.46 1 1 0 0 0-.56-.23 9.04 9.04 0 0 0-1.12-.08c-.5-.01-.75 0-.74.06.01.05.09.23.23.55.14.32.27.69.4 1.12Zm1.18 5.17c.72 0 1.3-.02 1.7-.04.41-.03.63-.2.65-.5.03-.3 0-.63-.1-.97a2.3 2.3 0 0 0-.38-.8c-.15-.18-.4-.3-.75-.33a6.74 6.74 0 0 0-1.1-.05c-.37.02-.55.04-.53.09a61.07 61.07 0 0 1 .51 2.6ZM61.05.57a14.79 14.79 0 0 1 1.66 3.15 29.47 29.47 0 0 1 1.3 4.56c.14.73.27 1.69.39 2.87h-2.66l-.27-1.96-.21-.94-2.66-.04.22 1.43.07 1.5h-2.73a26.47 26.47 0 0 0-1.21-6.43l-.67-2.05c-.2-.68-.17-1.22.1-1.6.28-.39.58-.59.88-.6.31-.02.92-.03 1.83-.02a81 81 0 0 1 3.96.13Zm-.36 5.47c-.21-.9-.4-1.5-.54-1.84l-.76-1.76c-1.35-.09-2.06-.04-2.15.14-.09.17-.1.44-.03.8.07.35.35 1.23.84 2.65l2.64.01ZM70.6.63l.62 1.56.11.37.07.27c-1.32-.03-2.33-.05-3.03-.05-.69 0-1.07.03-1.16.1-.08.05-.13.16-.15.3-.01.15.02.4.11.78l.38 1.42c.16.58.3 1.07.38 1.46.1.4.17.69.23.88.07.18.12.31.17.4.05.07.17.2.37.36.2.17.48.25.85.25h3.6l.18.8.18 1.64h-6.07c-.22 0-.52-.12-.9-.36a1.8 1.8 0 0 1-.71-.76 7.3 7.3 0 0 1-.34-1.31 41.05 41.05 0 0 0-1.51-5.77l-.26-.78c-.05-.15-.1-.32-.14-.5-.05-.2.05-.44.28-.72.23-.29.57-.44 1.02-.46a46.2 46.2 0 0 1 2.12 0c.95.02 2.15.06 3.6.12ZM75 11.12c-.12-1.3-.24-2.37-.36-3.18-.13-.82-.33-1.64-.6-2.47-.26-.83-.55-1.7-.86-2.58-.3-.9-.62-1.68-.94-2.36h3.1a50.16 50.16 0 0 1 1.59 3.78l.15.45L78.44.53h3.04l-1.7 5.3c1.27.94 2.1 1.66 2.48 2.13.39.47.75.96 1.1 1.45.33.49.63 1.07.9 1.76h-3.2a9.28 9.28 0 0 0-1.33-1.91 17.61 17.61 0 0 0-1.46-1.43l-.72-.54a24.6 24.6 0 0 1 .56 3.88h-3.05l-.05-.05Zm9.8-10.07.89 1.28 5.1-.03 1.27 2.74c.46.97.76 1.88.9 2.73l-5.15-.01.45 1.6a265.5 265.5 0 0 1-4.55-4.5l1.09-3.81Zm9 1.3c.46.86.87 1.74 1.23 2.62.36.87.64 1.8.84 2.8h-2.06a8.7 8.7 0 0 0-.97-3.01 43.34 43.34 0 0 0-1.2-2.46l2.17.04Zm2.95 5.39c-.14-.64-.3-1.23-.47-1.77-.17-.53-.74-1.75-1.68-3.64l1.42.01a20.34 20.34 0 0 1 1.58 3.33c.34.81.53 1.5.57 2.07h-1.42Zm2.38 0a10.39 10.39 0 0 0-1-3.01l-1.2-2.33h.98c.2.25.4.57.6.98l.4.8c.05.13.15.33.29.6.14.26.45 1.25.94 2.95l-1.02.01Zm1.7-.05c-.07-.41-.12-.7-.16-.86a3.77 3.77 0 0 0-.18-.6l-.34-1.03c-.15-.45-.6-1.36-1.35-2.75l.62-.03c.56.88.92 1.56 1.08 2.04l.55 1.57c.2.55.33 1.1.35 1.67l-.56-.01Zm-91.2 6.93a49.99 49.99 0 0 1-.22 2.32H6.5a24.84 24.84 0 0 1-1.42 6.74c-.26.73-.44 1.22-.56 1.48H1.6l.97-2.97c.7-2.33 1.01-4.08.97-5.26H.63l.14-1.57v-.74h8.85Zm3.07 7.56-.04.24c-.02.13 0 .25.03.36.05.1.15.17.32.2.17.02.52.03 1.05.01l.97-.04a.62.62 0 0 0 .35-.17c.12-.1.22-.21.3-.34.07-.14.15-.35.24-.65a40.32 40.32 0 0 0 .58-2.47c.1-.56.2-1.1.27-1.6.08-.52.07-.86 0-1-.08-.16-.22-.24-.44-.25a19.78 19.78 0 0 0-1.88 0 .57.57 0 0 0-.39.15.87.87 0 0 0-.19.37c-.03.15-.1.5-.19 1.09a28.01 28.01 0 0 1-.98 4.1Zm-3.4 1.73a25.27 25.27 0 0 0 1.37-4.45c.12-.6.24-1.37.35-2.31.1-.95.2-1.55.25-1.8a.95.95 0 0 1 .46-.6c.26-.15.6-.24 1.06-.25a123.39 123.39 0 0 1 5.4 0c.62.01 1.06.15 1.32.4s.35.8.28 1.65a30.5 30.5 0 0 1-1.37 6.71c-.15.5-.33.84-.52 1.06a2.7 2.7 0 0 1-.73.58c-.3.17-.61.26-.94.26h-5.78c-.52 0-.85-.1-1-.27a.82.82 0 0 1-.2-.58c0-.2.03-.34.06-.4Zm24.16-9.29c-.07 1-.12 1.63-.16 1.9l-.05.42h-2.91a24.83 24.83 0 0 1-1.43 6.74 24.2 24.2 0 0 1-.55 1.48h-2.93l.98-2.97c.69-2.33 1.01-4.08.97-5.26h-2.92l.15-1.57v-.74h8.85Zm6.1 8.03c-.18.55-.18.55 0 0 .19-.55.19-.55 0 0Zm-6.58 2.51a27.95 27.95 0 0 0 1.66-4.78c.17-.66.3-1.34.4-2.02.1-.68.17-1.29.23-1.82l.23-2h3.06l-.23 2.18c-.05.47-.14 1.1-.27 1.86l2.47.05a51 51 0 0 0 .34-2.45c.07-.65.1-1.18.09-1.6h2.96l-.11 1.56a40.04 40.04 0 0 1-.38 2.9 26.67 26.67 0 0 1-1.01 4.01c-.22.6-.52 1.33-.92 2.16h-2.85c.43-1.16.73-2.01.91-2.56.19-.55.35-1.15.5-1.8l-2.46-.04a32.1 32.1 0 0 1-.56 1.66 70 70 0 0 1-1.12 2.7h-2.94Zm10-4.04c.17-.69.17-.69 0 0-.16.68-.16.68 0 0Zm.74 3.99c.5-1.17.88-2.15 1.15-2.94a24.56 24.56 0 0 0 1.16-4.4c.14-.72.32-1.78.54-3.16h2.81l4.84.01c-.05.94-.14 1.67-.26 2.2l-4.93-.04c-.1.7-.2 1.28-.3 1.75l4.93.05c-.13.61-.33 1.33-.6 2.15h-4.95c-.38 1.16-.64 1.9-.78 2.19l5.05.04a40 40 0 0 1-.98 2.2h-7.71l.03-.05Zm13.94.09c.28-.65.47-1.12.57-1.4a32.87 32.87 0 0 0 1.06-3.87c.13-.7.25-1.42.33-2.15.1-.73.2-1.77.34-3.12h7.78c.03.92 0 1.63-.1 2.16l-5.02-.04c-.06.7-.12 1.28-.19 1.75l5.04.05c-.1.61-.25 1.33-.47 2.15h-5.05a71.7 71.7 0 0 1-.65 2.14l-.86 2.33h-2.78ZM69.8 14.6h2.97a17.6 17.6 0 0 1-.28 2.37c-.13.71-.28 1.42-.44 2.14-.15.7-.37 1.46-.64 2.24-.27.79-.37 1.27-.28 1.44.1.18.27.26.53.25.26-.02.54-.02.83-.02.3 0 .55-.03.75-.1.2-.05.35-.18.47-.39.11-.2.26-.6.45-1.2a33.5 33.5 0 0 0 1-4.34 16 16 0 0 0 .18-2.38h2.73c.05.68.04 1.33-.03 1.94a23.44 23.44 0 0 1-1.77 6.76 2.97 2.97 0 0 1-1.23 1.46 5.2 5.2 0 0 1-2.3.39c-1.03 0-2.05 0-3.03.02-.99.01-1.63-.1-1.93-.34-.29-.23-.3-.69-.02-1.35a26.56 26.56 0 0 0 1.53-5.14c.17-.95.34-2.2.5-3.75Zm18.26.02a49.83 49.83 0 0 1-.21 2.32h-2.92a24.83 24.83 0 0 1-1.42 6.74 21 21 0 0 1-.56 1.48h-2.92l.98-2.97c.69-2.33 1-4.08.96-5.26h-2.9l.13-1.57v-.74h8.86Zm1.9-.02h2.97c-.05.87-.14 1.66-.28 2.37a86.4 86.4 0 0 1-.44 2.14c-.16.7-.37 1.46-.64 2.24-.28.79-.37 1.27-.28 1.44.1.18.26.26.52.25.26-.02.54-.02.84-.02.3 0 .55-.03.74-.1.2-.05.36-.18.47-.39.12-.2.27-.6.45-1.2a33.44 33.44 0 0 0 1-4.34 16 16 0 0 0 .19-2.38h2.73c.05.68.04 1.33-.03 1.94a23.4 23.4 0 0 1-1.77 6.76 2.97 2.97 0 0 1-1.24 1.46 5.2 5.2 0 0 1-2.29.39c-1.04 0-2.05 0-3.04.02-.98.01-1.62-.1-1.92-.34-.3-.23-.3-.69-.02-1.35a26.56 26.56 0 0 0 1.53-5.14c.17-.95.34-2.2.5-3.75Zm7.7 10.61a60.08 60.08 0 0 0 1.44-3.45 29.2 29.2 0 0 0 1.33-4.95c.15-.86.25-1.64.29-2.33h3.98c2.07.05 3.24.23 3.52.54.28.3.4.7.33 1.2a19.45 19.45 0 0 1-.57 2.87c-.08.22-.24.5-.47.83-.23.33-.83.7-1.8 1.09.57 1.17.96 2.59 1.17 4.24h-3.1a6.24 6.24 0 0 0-.5-1.86c-.2-.4-.59-.9-1.15-1.5-.14.46-.26.8-.36 1.04l-.96 2.28h-3.16Zm5.01-5.78a9 9 0 0 0 1.7-.1c.27-.07.48-.2.61-.38.14-.19.24-.36.29-.5l.26-.95c.13-.49.06-.78-.2-.87-.26-.1-.9-.13-1.94-.1a15.27 15.27 0 0 1-.72 2.9Zm5.57 5.68c.5-1.17.88-2.15 1.16-2.94a24.42 24.42 0 0 0 1.15-4.4c.14-.72.32-1.78.54-3.16h2.82l4.83.01c-.05.94-.13 1.67-.26 2.2l-4.93-.04c-.1.7-.2 1.28-.3 1.75l4.94.05c-.13.61-.33 1.33-.6 2.15h-4.95c-.38 1.16-.64 1.9-.78 2.19l5.05.04c-.3.73-.63 1.46-.99 2.2h-7.7l.02-.05Z"/></svg>
